<svg width="20" height="20" viewBox="0 0 20 20" fill="none" xmlns="http://www.w3.org/2000/svg">
<g clip-path="url(#clip0_555_10812)">
<path d="M11 0H12V3L15 10V18C15 18.5304 14.7893 19.0391 14.4142 19.4142C14.0391 19.7893 13.5304 20 13 20H5C3.9 20 2.69 19.16 2.3 18.12L0 12V10C0 9.46957 0.210714 8.96086 0.585786 8.58579C0.960859 8.21071 1.46957 8 2 8H9V2C9 1.46957 9.21071 0.960859 9.58579 0.585786C9.96086 0.210714 10.4696 0 11 0ZM17 10H20V20H17V10Z" fill="#425E48"/>
</g>
<defs>
<clipPath id="clip0_555_10812">
<rect width="20" height="20" fill="white"/>
</clipPath>
</defs>
</svg>
