<svg width="20" height="20" viewBox="0 0 20 20" fill="none" xmlns="http://www.w3.org/2000/svg">
<path d="M12.0001 10C11.9985 10.3944 11.8803 10.7794 11.6604 11.1068C11.4405 11.4341 11.1288 11.6892 10.7644 11.8399C10.3999 11.9906 9.99911 12.0302 9.61225 11.9537C9.22539 11.8772 8.86978 11.6881 8.59011 11.41C8.3121 11.1304 8.12296 10.7748 8.04648 10.3879C7.97 10.0011 8.00959 9.60022 8.16028 9.2358C8.31096 8.87138 8.56601 8.55964 8.89337 8.33977C9.22072 8.11989 9.60577 8.0017 10.0001 8.00004V4.52759e-05C11.3144 -0.00391556 12.6166 0.252039 13.8316 0.753183C15.0467 1.25433 16.1506 1.99077 17.08 2.92015C18.0094 3.84952 18.7458 4.95349 19.247 6.16853C19.7481 7.38357 20.0041 8.68572 20.0001 10H12.0001ZM19.9001 11.41C19.6382 13.249 18.8693 14.9786 17.6796 16.4051C16.4899 17.8316 14.9264 18.8985 13.1644 19.4863C11.4023 20.0741 9.51138 20.1595 7.70354 19.7329C5.89569 19.3063 4.24238 18.3847 2.92893 17.0712C1.61549 15.7578 0.693826 14.1045 0.26726 12.2966C-0.159306 10.4888 -0.0739161 8.59785 0.513859 6.83581C1.10163 5.07377 2.16856 3.51026 3.59504 2.32054C5.02152 1.13083 6.75118 0.361931 8.59011 0.100045V2.13005C7.15202 2.38874 5.81224 3.03636 4.71617 4.00263C3.6201 4.96889 2.80959 6.21689 2.37262 7.61119C1.93564 9.0055 1.88888 10.4929 2.2374 11.9119C2.58593 13.3309 3.31643 14.6273 4.34964 15.6605C5.38285 16.6937 6.6793 17.4242 8.0983 17.7728C9.5173 18.1213 11.0047 18.0745 12.399 17.6375C13.7933 17.2006 15.0413 16.3901 16.0075 15.294C16.9738 14.1979 17.6214 12.8581 17.8801 11.42H19.9001V11.41ZM15.8301 11.41C15.578 12.4446 15.0551 13.3934 14.3152 14.159C13.5752 14.9247 12.6448 15.4797 11.6195 15.7669C10.5942 16.0542 9.51087 16.0635 8.4808 15.7937C7.45073 15.524 6.511 14.985 5.75807 14.2321C5.00515 13.4792 4.46615 12.5394 4.19642 11.5094C3.92668 10.4793 3.93593 9.39599 4.22321 8.37067C4.51049 7.34536 5.06545 6.41496 5.83112 5.67499C6.59679 4.93503 7.54559 4.41215 8.58011 4.16005V6.26005C7.95416 6.49583 7.39753 6.8852 6.9614 7.39235C6.52527 7.89951 6.22364 8.50816 6.08424 9.16236C5.94483 9.81656 5.97214 10.4953 6.16363 11.1362C6.35512 11.7771 6.70466 12.3596 7.18011 12.83C7.65328 13.3002 8.23653 13.6446 8.87677 13.8319C9.51701 14.0192 10.1939 14.0433 10.8459 13.9022C11.4978 13.7611 12.1042 13.4591 12.6097 13.0239C13.1151 12.5886 13.5038 12.0338 13.7401 11.41H15.8401H15.8301Z" fill="#425E48"/>
</svg>
