<svg width="1105" height="699" viewBox="0 0 1105 699" fill="none" xmlns="http://www.w3.org/2000/svg">
<path fill-rule="evenodd" clip-rule="evenodd" d="M583.983 235.16L463.791 56.1309L460.668 51.4175C449.184 34.6026 431.639 22.884 411.708 18.717C391.777 14.5499 371.007 18.2576 353.749 29.0634C336.49 39.8692 324.083 56.9345 319.127 76.6841C314.17 96.4338 317.049 117.335 327.16 135.01L459.076 363.593L396.745 427.683L147.618 56.0931L144.441 51.4347C133.139 34.2386 115.565 22.1534 95.4775 17.7646C75.3901 13.3758 54.3849 17.0318 36.9554 27.9506C19.5259 38.8693 7.05626 56.1838 2.214 76.1898C-2.62826 96.1959 0.541445 117.305 11.045 135.001L310.803 655.146L314.264 661.168C320.786 672.376 330.106 681.693 341.31 688.206C352.513 694.719 365.216 698.204 378.171 698.318C391.126 698.433 403.888 695.173 415.205 688.859C426.522 682.546 436.005 673.395 442.723 662.304L539.363 502.715L627.226 654.964L630.804 661.153C637.504 672.653 647.149 682.158 658.745 688.689C670.341 695.22 683.469 698.541 696.775 698.31C710.082 698.078 723.087 694.303 734.449 687.373C745.811 680.442 755.119 670.607 761.415 658.882L1103.56 20.3543C1105.05 17.3082 1105.4 13.8279 1104.54 10.548C1103.67 7.2681 1101.66 4.40704 1098.87 2.48645C1096.07 0.565847 1092.68 -0.286374 1089.31 0.085144C1085.94 0.456662 1082.82 2.02719 1080.51 4.51038L1079.99 5.07825L709.281 421.793L645.707 327.099L831.109 20.9282C832.705 17.9558 833.192 14.5115 832.483 11.2124C831.773 7.91324 829.913 4.9749 827.237 2.92388C824.56 0.872856 821.241 -0.156816 817.875 0.0193815C814.509 0.195579 811.315 1.56612 808.867 3.88542L808.356 4.45353L583.983 235.16Z" fill="white" fill-opacity="0.6"/>
</svg>
