<svg width="24" height="21" viewBox="0 0 24 21" fill="none" xmlns="http://www.w3.org/2000/svg">
<path d="M14.625 8.19588e-07L24 0V11.2727C24 14.303 23.375 16.6061 22.125 18.1818C20.75 19.8182 18.4375 20.7576 15.1875 21L15.1875 15.6364C16.3125 15.6364 17.25 15.1818 18 14.2727C18.375 13.7879 18.5625 12.8485 18.5625 11.4545V9.72727H14.625V8.19588e-07ZM0 2.09815e-06L9.375 1.27856e-06L9.375 11.2727C9.375 14.303 8.8125 16.5152 7.6875 17.9091C6.1875 19.7273 3.8125 20.7576 0.562504 21L0.562503 15.6364C2.5 15.6364 3.59375 14.697 3.84375 12.8182C3.90625 12.5758 3.9375 12.1212 3.9375 11.4545L3.9375 9.72727L8.50385e-07 9.72728L0 2.09815e-06Z" fill="#7445FB"/>
</svg>
