<svg width="20" height="20" viewBox="0 0 20 20" fill="none" xmlns="http://www.w3.org/2000/svg">
<g clip-path="url(#clip0_866_14183)">
<path d="M17.16 6.42C16.3839 4.87185 15.1282 3.61607 13.58 2.84L12.24 5.53C13.2036 6.01448 13.9855 6.79641 14.47 7.76L17.16 6.42ZM17.16 13.58L14.47 12.24C13.9855 13.2036 13.2036 13.9855 12.24 14.47L13.58 17.16C15.1282 16.3839 16.3839 15.1282 17.16 13.58ZM6.42 2.84C4.87185 3.61607 3.61607 4.87185 2.84 6.42L5.53 7.76C6.01448 6.79641 6.79641 6.01448 7.76 5.53L6.42 2.84ZM2.84 13.58C3.61607 15.1282 4.87185 16.3839 6.42 17.16L7.76 14.47C6.79641 13.9855 6.01448 13.2036 5.53 12.24L2.84 13.58ZM10 20C7.34784 20 4.8043 18.9464 2.92893 17.0711C1.05357 15.1957 0 12.6522 0 10C0 7.34784 1.05357 4.8043 2.92893 2.92893C4.8043 1.05357 7.34784 0 10 0C12.6522 0 15.1957 1.05357 17.0711 2.92893C18.9464 4.8043 20 7.34784 20 10C20 12.6522 18.9464 15.1957 17.0711 17.0711C15.1957 18.9464 12.6522 20 10 20ZM10 13C10.7956 13 11.5587 12.6839 12.1213 12.1213C12.6839 11.5587 13 10.7956 13 10C13 9.20435 12.6839 8.44129 12.1213 7.87868C11.5587 7.31607 10.7956 7 10 7C9.20435 7 8.44129 7.31607 7.87868 7.87868C7.31607 8.44129 7 9.20435 7 10C7 10.7956 7.31607 11.5587 7.87868 12.1213C8.44129 12.6839 9.20435 13 10 13Z" fill="#E84775"/>
</g>
<defs>
<clipPath id="clip0_866_14183">
<rect width="20" height="20" fill="white"/>
</clipPath>
</defs>
</svg>
