<svg width="20" height="16" viewBox="0 0 20 16" fill="none" xmlns="http://www.w3.org/2000/svg">
<path d="M4.13 10H4C3.56546 10.0019 3.14338 10.1454 2.7976 10.4085C2.45183 10.6717 2.20117 11.0404 2.08357 11.4587C1.96596 11.877 1.9878 12.3223 2.14578 12.7271C2.30376 13.1319 2.58928 13.4742 2.95915 13.7023C3.32902 13.9304 3.76312 14.0318 4.19576 13.9912C4.6284 13.9506 5.03606 13.7702 5.35704 13.4773C5.67803 13.1844 5.89489 12.795 5.97481 12.3678C6.05473 11.9407 5.99337 11.4991 5.8 11.11L7.86 8C8.07903 8.01194 8.29854 7.9883 8.51 7.93L10.06 9.48C9.97528 9.79272 9.9678 10.1213 10.0382 10.4376C10.1086 10.7539 10.2548 11.0483 10.4642 11.2955C10.6736 11.5428 10.9399 11.7354 11.2402 11.8569C11.5406 11.9785 11.866 12.0252 12.1884 11.9931C12.5108 11.9611 12.8206 11.8512 13.0911 11.6729C13.3616 11.4946 13.5847 11.2532 13.7413 10.9696C13.8979 10.6859 13.9832 10.3685 13.99 10.0445C13.9967 9.72062 13.9247 9.39991 13.78 9.11L15.87 6H16C16.4345 5.99806 16.8566 5.85465 17.2024 5.59146C17.5482 5.32827 17.7988 4.95963 17.9164 4.5413C18.034 4.12298 18.0122 3.67773 17.8542 3.27292C17.6962 2.86811 17.4107 2.52576 17.0408 2.29768C16.671 2.06959 16.2369 1.96817 15.8042 2.00877C15.3716 2.04936 14.9639 2.22975 14.643 2.52266C14.322 2.81557 14.1051 3.20505 14.0252 3.63218C13.9453 4.05931 14.0066 4.50085 14.2 4.89L12.14 8C11.921 7.98806 11.7015 8.0117 11.49 8.07L9.93 6.52C10.0147 6.20728 10.0222 5.87865 9.95179 5.5624C9.88138 5.24615 9.73519 4.95174 9.5258 4.70449C9.31641 4.45725 9.05009 4.26458 8.74975 4.14305C8.44941 4.02153 8.12404 3.97479 7.80164 4.00685C7.47923 4.03892 7.16944 4.14883 6.89892 4.32714C6.62841 4.50544 6.40525 4.7468 6.24867 5.03044C6.09208 5.31409 6.00675 5.63153 6.00002 5.95545C5.99328 6.27938 6.06534 6.60009 6.21 6.89L4.13 10ZM0 2C0 0.9 0.9 0 2 0H18C18.5304 0 19.0391 0.210714 19.4142 0.585786C19.7893 0.960859 20 1.46957 20 2V14C20 14.5304 19.7893 15.0391 19.4142 15.4142C19.0391 15.7893 18.5304 16 18 16H2C1.46957 16 0.960859 15.7893 0.585786 15.4142C0.210714 15.0391 0 14.5304 0 14V2Z" fill="#2B4DC4"/>
</svg>
