<svg width="20" height="20" viewBox="0 0 20 20" fill="none" xmlns="http://www.w3.org/2000/svg">
<path d="M0.199951 9.99997C1.12114 8.19299 2.524 6.67588 4.25347 5.61631C5.98295 4.55674 7.97171 3.99597 9.99995 3.99597C12.0282 3.99597 14.017 4.55674 15.7464 5.61631C17.4759 6.67588 18.8788 8.19299 19.7999 9.99997C18.8788 11.807 17.4759 13.3241 15.7464 14.3836C14.017 15.4432 12.0282 16.004 9.99995 16.004C7.97171 16.004 5.98295 15.4432 4.25347 14.3836C2.524 13.3241 1.12114 11.807 0.199951 9.99997ZM9.99995 14C11.0608 14 12.0782 13.5785 12.8284 12.8284C13.5785 12.0783 14 11.0608 14 9.99997C14 8.93911 13.5785 7.92169 12.8284 7.17155C12.0782 6.4214 11.0608 5.99997 9.99995 5.99997C8.93909 5.99997 7.92167 6.4214 7.17152 7.17155C6.42138 7.92169 5.99995 8.93911 5.99995 9.99997C5.99995 11.0608 6.42138 12.0783 7.17152 12.8284C7.92167 13.5785 8.93909 14 9.99995 14ZM9.99995 12C9.46952 12 8.96081 11.7893 8.58574 11.4142C8.21067 11.0391 7.99995 10.5304 7.99995 9.99997C7.99995 9.46954 8.21067 8.96083 8.58574 8.58576C8.96081 8.21069 9.46952 7.99997 9.99995 7.99997C10.5304 7.99997 11.0391 8.21069 11.4142 8.58576C11.7892 8.96083 12 9.46954 12 9.99997C12 10.5304 11.7892 11.0391 11.4142 11.4142C11.0391 11.7893 10.5304 12 9.99995 12Z" fill="#2D6DCD"/>
</svg>
