<svg width="290" height="327" viewBox="0 0 290 327" fill="none" xmlns="http://www.w3.org/2000/svg">
<rect x="0.5" y="0.5" width="289" height="326" rx="19.5" fill="white" stroke="#E5EDFC"/>
<mask id="mask0_439_11160" style="mask-type:alpha" maskUnits="userSpaceOnUse" x="0" y="0" width="290" height="327">
<rect x="0.5" y="0.5" width="289" height="326" rx="19.5" fill="white" stroke="#E5EDFC"/>
</mask>
<g mask="url(#mask0_439_11160)">
<g opacity="0.4">
<mask id="mask1_439_11160" style="mask-type:alpha" maskUnits="userSpaceOnUse" x="-107" y="-68" width="432" height="522">
<rect x="-61.5444" y="-67.2578" width="387.681" height="487.451" transform="rotate(5.30217 -61.5444 -67.2578)" fill="url(#paint0_linear_439_11160)"/>
</mask>
<g mask="url(#mask1_439_11160)">
<path d="M243.508 275.489C236.21 354.13 166.542 411.965 87.9005 404.667C9.25916 397.369 -48.5758 327.701 -41.2774 249.059C-33.9791 170.418 25.8545 218.55 104.496 225.848C183.137 233.147 250.807 196.848 243.508 275.489Z" fill="#579AFF"/>
<g filter="url(#filter0_f_439_11160)">
<path d="M243.244 278.329C237.594 339.204 169.263 382.637 90.6215 375.338C11.9801 368.04 -47.1915 312.774 -41.5419 251.899C-35.8924 191.024 32.4389 147.591 111.08 154.89C189.722 162.188 248.893 217.454 243.244 278.329Z" fill="#579AFF"/>
</g>
<g filter="url(#filter1_f_439_11160)">
<ellipse cx="101.377" cy="259.438" rx="143.005" ry="110.698" transform="rotate(5.30217 101.377 259.438)" fill="#579AFF"/>
</g>
<g filter="url(#filter2_f_439_11160)">
<ellipse cx="102.827" cy="243.825" rx="143.005" ry="111.173" transform="rotate(5.30217 102.827 243.825)" fill="#579AFF"/>
</g>
<g filter="url(#filter3_f_439_11160)">
<ellipse cx="107.173" cy="196.992" rx="143.005" ry="110.698" transform="rotate(5.30217 107.173 196.992)" fill="#579AFF"/>
</g>
<g filter="url(#filter4_f_439_11160)">
<ellipse cx="113.056" cy="133.602" rx="120.2" ry="110.698" transform="rotate(5.30217 113.056 133.602)" fill="#579AFF"/>
</g>
</g>
<mask id="mask2_439_11160" style="mask-type:alpha" maskUnits="userSpaceOnUse" x="-166" y="-26" width="762" height="703">
<rect x="384.088" y="-25.8999" width="485.429" height="610.355" transform="rotate(64.2136 384.088 -25.8999)" fill="url(#paint1_linear_439_11160)"/>
</mask>
<g mask="url(#mask2_439_11160)">
<path d="M213.797 522.811C124.752 565.831 17.6916 528.52 -25.3285 439.475C-68.3485 350.43 -31.0377 243.37 58.0077 200.35C147.053 157.329 134.127 252.609 177.148 341.654C220.168 430.699 302.842 479.791 213.797 522.811Z" fill="#FF4DED"/>
<g filter="url(#filter5_f_439_11160)">
<path d="M210.583 524.364C141.654 557.666 50.9016 512.476 7.88158 423.431C-35.1385 334.385 -14.1353 235.204 54.7935 201.903C123.722 168.601 214.475 213.791 257.495 302.836C300.515 391.882 279.512 491.063 210.583 524.364Z" fill="#FF4DED"/>
</g>
<g filter="url(#filter6_f_439_11160)">
<ellipse cx="139.116" cy="360.027" rx="179.061" ry="138.609" transform="rotate(64.2136 139.116 360.027)" fill="#FF4DED"/>
</g>
<g filter="url(#filter7_f_439_11160)">
<ellipse cx="156.792" cy="351.489" rx="179.061" ry="139.204" transform="rotate(64.2136 156.792 351.489)" fill="#FF4DED"/>
</g>
<g filter="url(#filter8_f_439_11160)">
<ellipse cx="209.822" cy="325.868" rx="179.061" ry="138.609" transform="rotate(64.2136 209.822 325.868)" fill="#FF4DED"/>
</g>
<g filter="url(#filter9_f_439_11160)">
<ellipse cx="281.599" cy="291.19" rx="150.507" ry="138.609" transform="rotate(64.2136 281.599 291.19)" fill="#FF4DED"/>
</g>
</g>
</g>
<g opacity="0.4">
<mask id="mask3_439_11160" style="mask-type:alpha" maskUnits="userSpaceOnUse" x="155" y="278" width="756" height="269">
<rect x="910.313" y="348.541" width="198.564" height="739.173" transform="rotate(95.4175 910.313 348.541)" fill="url(#paint2_linear_439_11160)"/>
</mask>
<g mask="url(#mask3_439_11160)">
<path d="M421.442 474.747C302.212 463.44 208.653 421.627 212.472 381.356C216.292 341.084 316.042 317.604 435.272 328.911C554.502 340.219 487.402 366.795 483.583 407.067C479.764 447.338 540.671 486.054 421.442 474.747Z" fill="#57AEFF"/>
<g filter="url(#filter10_f_439_11160)">
<path d="M417.137 474.338C324.842 465.585 253.119 425.843 256.939 385.572C260.758 345.3 338.673 319.75 430.967 328.502C523.261 337.255 594.984 376.997 591.165 417.268C587.346 457.54 509.431 483.091 417.137 474.338Z" fill="#57AEFF"/>
</g>
<g filter="url(#filter11_f_439_11160)">
<ellipse cx="432.657" cy="402.236" rx="73.245" ry="167.863" transform="rotate(95.4175 432.657 402.236)" fill="#57AEFF"/>
</g>
<g filter="url(#filter12_f_439_11160)">
<ellipse cx="456.329" cy="404.482" rx="73.245" ry="168.583" transform="rotate(95.4175 456.329 404.482)" fill="#57AEFF"/>
</g>
<g filter="url(#filter13_f_439_11160)">
<ellipse cx="527.332" cy="411.215" rx="73.245" ry="167.863" transform="rotate(95.4175 527.332 411.215)" fill="#57AEFF"/>
</g>
</g>
<mask id="mask4_439_11160" style="mask-type:alpha" maskUnits="userSpaceOnUse" x="18" y="321" width="872" height="305">
<rect width="513.701" height="437.342" transform="matrix(-0.994335 0.106288 -0.822244 -0.569136 889.253 570.598)" fill="url(#paint3_linear_439_11160)"/>
</mask>
<g mask="url(#mask4_439_11160)">
<ellipse cx="189.49" cy="99.3184" rx="189.49" ry="99.3184" transform="matrix(-0.994499 0.106175 -0.822675 -0.569089 723.146 507.686)" fill="#4A46FF"/>
<g filter="url(#filter15_f_439_11160)">
<ellipse cx="159.272" cy="99.3184" rx="159.272" ry="99.3184" transform="matrix(-0.994499 0.106175 -0.822675 -0.569089 740.085 543.399)" fill="#4A46FF"/>
</g>
</g>
</g>
<g opacity="0.4">
<mask id="mask5_439_11160" style="mask-type:alpha" maskUnits="userSpaceOnUse" x="-139" y="-182" width="732" height="802">
<rect x="-138.244" y="22.8755" width="516.598" height="649.546" transform="rotate(-23.2549 -138.244 22.8755)" fill="url(#paint4_linear_439_11160)"/>
</mask>
<g mask="url(#mask5_439_11160)">
<path d="M437.124 229.716C478.676 326.408 433.976 438.477 337.284 480.03C240.591 521.582 128.522 476.882 86.9697 380.19C45.4174 283.497 146.108 301.718 242.8 260.165C339.493 218.613 395.572 133.023 437.124 229.716Z" fill="#2C67FF"/>
<g filter="url(#filter16_f_439_11160)">
<path d="M438.626 233.203C470.791 308.052 418.482 402.413 321.789 443.965C225.097 485.517 120.637 458.526 88.4719 383.677C56.3068 308.829 108.617 214.468 205.309 172.915C302.002 131.363 406.461 158.355 438.626 233.203Z" fill="#2C67FF"/>
</g>
<g filter="url(#filter17_f_439_11160)">
<ellipse cx="260.549" cy="301.462" rx="190.559" ry="147.509" transform="rotate(-23.2549 260.549 301.462)" fill="#2C67FF"/>
</g>
<g filter="url(#filter18_f_439_11160)">
<ellipse cx="252.302" cy="282.268" rx="190.559" ry="148.142" transform="rotate(-23.2549 252.302 282.268)" fill="#2C67FF"/>
</g>
<g filter="url(#filter19_f_439_11160)">
<ellipse cx="227.555" cy="224.683" rx="190.559" ry="147.509" transform="rotate(-23.2549 227.555 224.683)" fill="#2C67FF"/>
</g>
</g>
<path d="M206.197 221.711C270.77 230.595 315.915 290.143 307.031 354.716C298.147 419.29 238.598 464.435 174.025 455.551C109.452 446.667 151.317 399.089 160.201 334.516C169.085 269.942 141.624 212.827 206.197 221.711Z" fill="#094EFF"/>
<g filter="url(#filter20_f_439_11160)">
<path d="M208.528 222.032C258.513 228.909 291.832 286.83 282.948 351.404C274.064 415.977 226.341 462.749 176.356 455.872C126.371 448.995 93.0515 391.073 101.936 326.5C110.819 261.927 158.542 215.155 208.528 222.032Z" fill="#094EFF"/>
</g>
<g filter="url(#filter21_f_439_11160)">
<ellipse cx="187.782" cy="338.31" rx="118.021" ry="91.3588" transform="rotate(-82.1664 187.782 338.31)" fill="#094EFF"/>
</g>
<g filter="url(#filter22_f_439_11160)">
<ellipse cx="174.961" cy="336.547" rx="118.021" ry="91.7509" transform="rotate(-82.1664 174.961 336.547)" fill="#094EFF"/>
</g>
<g filter="url(#filter23_f_439_11160)">
<ellipse cx="136.507" cy="331.256" rx="118.021" ry="91.3588" transform="rotate(-82.1664 136.507 331.256)" fill="#094EFF"/>
</g>
<g filter="url(#filter24_f_439_11160)">
<ellipse cx="84.4566" cy="324.095" rx="99.2007" ry="91.3588" transform="rotate(-82.1664 84.4566 324.095)" fill="#094EFF"/>
</g>
</g>
<g opacity="0.4">
<path d="M282.538 305.72C336.484 254.349 421.86 256.436 473.231 310.381C524.602 364.327 522.515 449.703 468.57 501.074C414.624 552.445 401.938 481.137 350.567 427.192C299.196 373.246 228.593 357.091 282.538 305.72Z" fill="#0066FF"/>
<g filter="url(#filter25_f_439_11160)">
<path d="M284.483 303.865C326.242 264.099 401.738 275.594 453.109 329.539C504.48 383.485 512.273 459.452 470.515 499.218C428.756 538.984 353.26 527.489 301.889 473.544C250.518 419.598 242.725 343.63 284.483 303.865Z" fill="#0066FF"/>
</g>
<g filter="url(#filter26_f_439_11160)">
<ellipse cx="373.606" cy="405.25" rx="134.88" ry="104.409" transform="rotate(-133.6 373.606 405.25)" fill="#0066FF"/>
</g>
<g filter="url(#filter27_f_439_11160)">
<ellipse cx="362.898" cy="415.447" rx="134.88" ry="104.857" transform="rotate(-133.6 362.898 415.447)" fill="#0066FF"/>
</g>
<g filter="url(#filter28_f_439_11160)">
<ellipse cx="330.77" cy="446.041" rx="134.88" ry="104.409" transform="rotate(-133.6 330.77 446.041)" fill="#0066FF"/>
</g>
<g filter="url(#filter29_f_439_11160)">
<ellipse cx="287.287" cy="487.45" rx="113.371" ry="104.409" transform="rotate(-133.6 287.287 487.45)" fill="#0066FF"/>
</g>
<mask id="mask6_439_11160" style="mask-type:alpha" maskUnits="userSpaceOnUse" x="282" y="319" width="283" height="328">
<rect x="564.959" y="597.051" width="226.466" height="284.748" transform="rotate(167.489 564.959 597.051)" fill="url(#paint5_linear_439_11160)"/>
</mask>
<g mask="url(#mask6_439_11160)">
<ellipse cx="417.953" cy="453.418" rx="83.5372" ry="64.9425" transform="rotate(167.489 417.953 453.418)" fill="#096BFF"/>
<g filter="url(#filter31_f_439_11160)">
<ellipse cx="423.904" cy="480.24" rx="83.5372" ry="64.665" transform="rotate(167.489 423.904 480.24)" fill="#096BFF"/>
</g>
<g filter="url(#filter32_f_439_11160)">
<ellipse cx="431.961" cy="516.546" rx="70.2156" ry="64.665" transform="rotate(167.489 431.961 516.546)" fill="#096BFF"/>
</g>
</g>
</g>
</g>
<defs>
<filter id="filter0_f_439_11160" x="-48.024" y="147.98" width="297.75" height="234.267" filterUnits="userSpaceOnUse" color-interpolation-filters="sRGB">
<feFlood flood-opacity="0" result="BackgroundImageFix"/>
<feBlend mode="normal" in="SourceGraphic" in2="BackgroundImageFix" result="shape"/>
<feGaussianBlur stdDeviation="3.0545" result="effect1_foregroundBlur_439_11160"/>
</filter>
<filter id="filter1_f_439_11160" x="-62.7702" y="127.032" width="328.295" height="264.812" filterUnits="userSpaceOnUse" color-interpolation-filters="sRGB">
<feFlood flood-opacity="0" result="BackgroundImageFix"/>
<feBlend mode="normal" in="SourceGraphic" in2="BackgroundImageFix" result="shape"/>
<feGaussianBlur stdDeviation="10.6908" result="effect1_foregroundBlur_439_11160"/>
</filter>
<filter id="filter2_f_439_11160" x="-91.8689" y="80.404" width="389.391" height="326.842" filterUnits="userSpaceOnUse" color-interpolation-filters="sRGB">
<feFlood flood-opacity="0" result="BackgroundImageFix"/>
<feBlend mode="normal" in="SourceGraphic" in2="BackgroundImageFix" result="shape"/>
<feGaussianBlur stdDeviation="25.9633" result="effect1_foregroundBlur_439_11160"/>
</filter>
<filter id="filter3_f_439_11160" x="-148.609" y="-27.0488" width="511.565" height="448.082" filterUnits="userSpaceOnUse" color-interpolation-filters="sRGB">
<feFlood flood-opacity="0" result="BackgroundImageFix"/>
<feBlend mode="normal" in="SourceGraphic" in2="BackgroundImageFix" result="shape"/>
<feGaussianBlur stdDeviation="56.5083" result="effect1_foregroundBlur_439_11160"/>
</filter>
<filter id="filter4_f_439_11160" x="-205.616" y="-175.732" width="637.343" height="618.667" filterUnits="userSpaceOnUse" color-interpolation-filters="sRGB">
<feFlood flood-opacity="0" result="BackgroundImageFix"/>
<feBlend mode="normal" in="SourceGraphic" in2="BackgroundImageFix" result="shape"/>
<feGaussianBlur stdDeviation="99.2713" result="effect1_foregroundBlur_439_11160"/>
</filter>
<filter id="filter5_f_439_11160" x="-20.5607" y="184.841" width="306.498" height="356.586" filterUnits="userSpaceOnUse" color-interpolation-filters="sRGB">
<feFlood flood-opacity="0" result="BackgroundImageFix"/>
<feBlend mode="normal" in="SourceGraphic" in2="BackgroundImageFix" result="shape"/>
<feGaussianBlur stdDeviation="3.0545" result="effect1_foregroundBlur_439_11160"/>
</filter>
<filter id="filter6_f_439_11160" x="-29.4049" y="166.461" width="337.043" height="387.131" filterUnits="userSpaceOnUse" color-interpolation-filters="sRGB">
<feFlood flood-opacity="0" result="BackgroundImageFix"/>
<feBlend mode="normal" in="SourceGraphic" in2="BackgroundImageFix" result="shape"/>
<feGaussianBlur stdDeviation="10.6908" result="effect1_foregroundBlur_439_11160"/>
</filter>
<filter id="filter7_f_439_11160" x="-42.7293" y="127.287" width="399.042" height="448.402" filterUnits="userSpaceOnUse" color-interpolation-filters="sRGB">
<feFlood flood-opacity="0" result="BackgroundImageFix"/>
<feBlend mode="normal" in="SourceGraphic" in2="BackgroundImageFix" result="shape"/>
<feGaussianBlur stdDeviation="25.9633" result="effect1_foregroundBlur_439_11160"/>
</filter>
<filter id="filter8_f_439_11160" x="-50.3344" y="40.6675" width="520.313" height="570.401" filterUnits="userSpaceOnUse" color-interpolation-filters="sRGB">
<feFlood flood-opacity="0" result="BackgroundImageFix"/>
<feBlend mode="normal" in="SourceGraphic" in2="BackgroundImageFix" result="shape"/>
<feGaussianBlur stdDeviation="56.5083" result="effect1_foregroundBlur_439_11160"/>
</filter>
<filter id="filter9_f_439_11160" x="-57.9093" y="-55.7174" width="679.017" height="693.816" filterUnits="userSpaceOnUse" color-interpolation-filters="sRGB">
<feFlood flood-opacity="0" result="BackgroundImageFix"/>
<feBlend mode="normal" in="SourceGraphic" in2="BackgroundImageFix" result="shape"/>
<feGaussianBlur stdDeviation="99.2713" result="effect1_foregroundBlur_439_11160"/>
</filter>
<filter id="filter10_f_439_11160" x="252.515" y="322.506" width="343.073" height="157.828" filterUnits="userSpaceOnUse" color-interpolation-filters="sRGB">
<feFlood flood-opacity="0" result="BackgroundImageFix"/>
<feBlend mode="normal" in="SourceGraphic" in2="BackgroundImageFix" result="shape"/>
<feGaussianBlur stdDeviation="2.13896" result="effect1_foregroundBlur_439_11160"/>
</filter>
<filter id="filter11_f_439_11160" x="250.426" y="312.627" width="364.463" height="179.217" filterUnits="userSpaceOnUse" color-interpolation-filters="sRGB">
<feFlood flood-opacity="0" result="BackgroundImageFix"/>
<feBlend mode="normal" in="SourceGraphic" in2="BackgroundImageFix" result="shape"/>
<feGaussianBlur stdDeviation="7.48635" result="effect1_foregroundBlur_439_11160"/>
</filter>
<filter id="filter12_f_439_11160" x="251.991" y="293.469" width="408.676" height="222.025" filterUnits="userSpaceOnUse" color-interpolation-filters="sRGB">
<feFlood flood-opacity="0" result="BackgroundImageFix"/>
<feBlend mode="normal" in="SourceGraphic" in2="BackgroundImageFix" result="shape"/>
<feGaussianBlur stdDeviation="18.1811" result="effect1_foregroundBlur_439_11160"/>
</filter>
<filter id="filter13_f_439_11160" x="280.932" y="257.438" width="492.8" height="307.555" filterUnits="userSpaceOnUse" color-interpolation-filters="sRGB">
<feFlood flood-opacity="0" result="BackgroundImageFix"/>
<feBlend mode="normal" in="SourceGraphic" in2="BackgroundImageFix" result="shape"/>
<feGaussianBlur stdDeviation="39.5707" result="effect1_foregroundBlur_439_11160"/>
</filter>
<filter id="filter15_f_439_11160" x="182.684" y="305.745" width="634.596" height="396.089" filterUnits="userSpaceOnUse" color-interpolation-filters="sRGB">
<feFlood flood-opacity="0" result="BackgroundImageFix"/>
<feBlend mode="normal" in="SourceGraphic" in2="BackgroundImageFix" result="shape"/>
<feGaussianBlur stdDeviation="69.5161" result="effect1_foregroundBlur_439_11160"/>
</filter>
<filter id="filter16_f_439_11160" x="71.9124" y="146.326" width="383.274" height="324.227" filterUnits="userSpaceOnUse" color-interpolation-filters="sRGB">
<feFlood flood-opacity="0" result="BackgroundImageFix"/>
<feBlend mode="normal" in="SourceGraphic" in2="BackgroundImageFix" result="shape"/>
<feGaussianBlur stdDeviation="3.53844" result="effect1_foregroundBlur_439_11160"/>
</filter>
<filter id="filter17_f_439_11160" x="51.2197" y="121.656" width="418.658" height="359.612" filterUnits="userSpaceOnUse" color-interpolation-filters="sRGB">
<feFlood flood-opacity="0" result="BackgroundImageFix"/>
<feBlend mode="normal" in="SourceGraphic" in2="BackgroundImageFix" result="shape"/>
<feGaussianBlur stdDeviation="12.3845" result="effect1_foregroundBlur_439_11160"/>
</filter>
<filter id="filter18_f_439_11160" x="7.50911" y="66.5692" width="489.585" height="431.399" filterUnits="userSpaceOnUse" color-interpolation-filters="sRGB">
<feFlood flood-opacity="0" result="BackgroundImageFix"/>
<feBlend mode="normal" in="SourceGraphic" in2="BackgroundImageFix" result="shape"/>
<feGaussianBlur stdDeviation="30.0767" result="effect1_foregroundBlur_439_11160"/>
</filter>
<filter id="filter19_f_439_11160" x="-87.9272" y="-61.2758" width="630.965" height="571.918" filterUnits="userSpaceOnUse" color-interpolation-filters="sRGB">
<feFlood flood-opacity="0" result="BackgroundImageFix"/>
<feBlend mode="normal" in="SourceGraphic" in2="BackgroundImageFix" result="shape"/>
<feGaussianBlur stdDeviation="65.4612" result="effect1_foregroundBlur_439_11160"/>
</filter>
<filter id="filter20_f_439_11160" x="93.4246" y="214.284" width="198.034" height="249.335" filterUnits="userSpaceOnUse" color-interpolation-filters="sRGB">
<feFlood flood-opacity="0" result="BackgroundImageFix"/>
<feBlend mode="normal" in="SourceGraphic" in2="BackgroundImageFix" result="shape"/>
<feGaussianBlur stdDeviation="3.53844" result="effect1_foregroundBlur_439_11160"/>
</filter>
<filter id="filter21_f_439_11160" x="71.0722" y="195.95" width="233.419" height="284.72" filterUnits="userSpaceOnUse" color-interpolation-filters="sRGB">
<feFlood flood-opacity="0" result="BackgroundImageFix"/>
<feBlend mode="normal" in="SourceGraphic" in2="BackgroundImageFix" result="shape"/>
<feGaussianBlur stdDeviation="12.3845" result="effect1_foregroundBlur_439_11160"/>
</filter>
<filter id="filter22_f_439_11160" x="22.4852" y="158.797" width="304.952" height="355.5" filterUnits="userSpaceOnUse" color-interpolation-filters="sRGB">
<feFlood flood-opacity="0" result="BackgroundImageFix"/>
<feBlend mode="normal" in="SourceGraphic" in2="BackgroundImageFix" result="shape"/>
<feGaussianBlur stdDeviation="30.0767" result="effect1_foregroundBlur_439_11160"/>
</filter>
<filter id="filter23_f_439_11160" x="-86.3559" y="82.7427" width="445.725" height="497.026" filterUnits="userSpaceOnUse" color-interpolation-filters="sRGB">
<feFlood flood-opacity="0" result="BackgroundImageFix"/>
<feBlend mode="normal" in="SourceGraphic" in2="BackgroundImageFix" result="shape"/>
<feGaussianBlur stdDeviation="65.4612" result="effect1_foregroundBlur_439_11160"/>
</filter>
<filter id="filter24_f_439_11160" x="-237.065" y="-4.97519" width="643.043" height="658.14" filterUnits="userSpaceOnUse" color-interpolation-filters="sRGB">
<feFlood flood-opacity="0" result="BackgroundImageFix"/>
<feBlend mode="normal" in="SourceGraphic" in2="BackgroundImageFix" result="shape"/>
<feGaussianBlur stdDeviation="114.999" result="effect1_foregroundBlur_439_11160"/>
</filter>
<filter id="filter25_f_439_11160" x="250.548" y="273.11" width="253.901" height="256.863" filterUnits="userSpaceOnUse" color-interpolation-filters="sRGB">
<feFlood flood-opacity="0" result="BackgroundImageFix"/>
<feBlend mode="normal" in="SourceGraphic" in2="BackgroundImageFix" result="shape"/>
<feGaussianBlur stdDeviation="3.53844" result="effect1_foregroundBlur_439_11160"/>
</filter>
<filter id="filter26_f_439_11160" x="228.963" y="259.126" width="289.286" height="292.248" filterUnits="userSpaceOnUse" color-interpolation-filters="sRGB">
<feFlood flood-opacity="0" result="BackgroundImageFix"/>
<feBlend mode="normal" in="SourceGraphic" in2="BackgroundImageFix" result="shape"/>
<feGaussianBlur stdDeviation="12.3845" result="effect1_foregroundBlur_439_11160"/>
</filter>
<filter id="filter27_f_439_11160" x="182.665" y="233.755" width="360.464" height="363.383" filterUnits="userSpaceOnUse" color-interpolation-filters="sRGB">
<feFlood flood-opacity="0" result="BackgroundImageFix"/>
<feBlend mode="normal" in="SourceGraphic" in2="BackgroundImageFix" result="shape"/>
<feGaussianBlur stdDeviation="30.0767" result="effect1_foregroundBlur_439_11160"/>
</filter>
<filter id="filter28_f_439_11160" x="79.9742" y="193.764" width="501.592" height="504.554" filterUnits="userSpaceOnUse" color-interpolation-filters="sRGB">
<feFlood flood-opacity="0" result="BackgroundImageFix"/>
<feBlend mode="normal" in="SourceGraphic" in2="BackgroundImageFix" result="shape"/>
<feGaussianBlur stdDeviation="65.4612" result="effect1_foregroundBlur_439_11160"/>
</filter>
<filter id="filter29_f_439_11160" x="-51.4747" y="148.249" width="677.524" height="678.402" filterUnits="userSpaceOnUse" color-interpolation-filters="sRGB">
<feFlood flood-opacity="0" result="BackgroundImageFix"/>
<feBlend mode="normal" in="SourceGraphic" in2="BackgroundImageFix" result="shape"/>
<feGaussianBlur stdDeviation="114.999" result="effect1_foregroundBlur_439_11160"/>
</filter>
<filter id="filter31_f_439_11160" x="210.221" y="283.629" width="427.367" height="393.223" filterUnits="userSpaceOnUse" color-interpolation-filters="sRGB">
<feFlood flood-opacity="0" result="BackgroundImageFix"/>
<feBlend mode="normal" in="SourceGraphic" in2="BackgroundImageFix" result="shape"/>
<feGaussianBlur stdDeviation="65.4612" result="effect1_foregroundBlur_439_11160"/>
</filter>
<filter id="filter32_f_439_11160" x="131.983" y="221.596" width="599.955" height="589.9" filterUnits="userSpaceOnUse" color-interpolation-filters="sRGB">
<feFlood flood-opacity="0" result="BackgroundImageFix"/>
<feBlend mode="normal" in="SourceGraphic" in2="BackgroundImageFix" result="shape"/>
<feGaussianBlur stdDeviation="114.999" result="effect1_foregroundBlur_439_11160"/>
</filter>
<linearGradient id="paint0_linear_439_11160" x1="223.04" y1="320.898" x2="223.04" y2="-67.2578" gradientUnits="userSpaceOnUse">
<stop stop-color="white"/>
<stop offset="1" stop-color="white" stop-opacity="0"/>
</linearGradient>
<linearGradient id="paint1_linear_439_11160" x1="740.426" y1="460.124" x2="740.426" y2="-25.8999" gradientUnits="userSpaceOnUse">
<stop stop-color="white"/>
<stop offset="1" stop-color="white" stop-opacity="0"/>
</linearGradient>
<linearGradient id="paint2_linear_439_11160" x1="1056.07" y1="937.142" x2="1056.07" y2="348.541" gradientUnits="userSpaceOnUse">
<stop stop-color="white"/>
<stop offset="1" stop-color="white" stop-opacity="0"/>
</linearGradient>
<linearGradient id="paint3_linear_439_11160" x1="377.092" y1="348.254" x2="377.092" y2="2.70936e-06" gradientUnits="userSpaceOnUse">
<stop stop-color="white"/>
<stop offset="1" stop-color="white" stop-opacity="0"/>
</linearGradient>
<linearGradient id="paint4_linear_439_11160" x1="240.975" y1="540.107" x2="240.975" y2="22.8755" gradientUnits="userSpaceOnUse">
<stop stop-color="white"/>
<stop offset="1" stop-color="white" stop-opacity="0"/>
</linearGradient>
<linearGradient id="paint5_linear_439_11160" x1="731.201" y1="823.795" x2="731.201" y2="597.051" gradientUnits="userSpaceOnUse">
<stop stop-color="white"/>
<stop offset="1" stop-color="white" stop-opacity="0"/>
</linearGradient>
</defs>
</svg>
