<svg width="447" height="406" viewBox="0 0 447 406" fill="none" xmlns="http://www.w3.org/2000/svg">
<mask id="mask0_952_13639" style="mask-type:luminance" maskUnits="userSpaceOnUse" x="0" y="0" width="447" height="406">
<path d="M97.4601 40.0566L37.5601 101.947C-20.7599 162.137 -8.70987 260.817 62.3901 305.247L191.12 385.697C205.862 394.909 222.282 401.113 239.433 403.951C256.584 406.788 274.127 406.203 291.051 402.229C307.975 398.255 323.945 390.971 338.041 380.797C352.137 370.622 364.079 357.758 373.18 342.947L427.29 254.947C469.1 186.947 441.29 97.6466 368.21 65.4266L245.21 11.1966C220.583 0.338604 193.222 -2.71607 166.807 2.44357C140.392 7.60321 116.191 20.7296 97.4601 40.0566Z" fill="white"/>
</mask>
<g mask="url(#mask0_952_13639)">
<path d="M482.87 -31.3833H-13.96V433.087H482.87V-31.3833Z" fill="#EEF3FC"/>
<path d="M194.02 41.7167C193.645 37.5167 191.712 33.6091 188.601 30.7628C185.49 27.9164 181.427 26.3375 177.21 26.3367H-63.7299C-67.9472 26.3352 -72.0121 27.9133 -75.1236 30.7601C-78.235 33.6069 -80.1674 37.5159 -80.5399 41.7167L-96.6299 222.717L-59.9299 382.247H173.4L210.11 222.717L194.02 41.7167Z" fill="#79A8C6" stroke="#34424F" stroke-width="0.75" stroke-linecap="round" stroke-linejoin="round"/>
<path d="M173.4 420.947V382.337L225.68 356.007V420.947C225.668 424.905 224.731 428.807 222.942 432.338C221.154 435.87 218.564 438.934 215.38 441.287H183.7C180.516 438.934 177.926 435.87 176.137 432.338C174.349 428.807 173.411 424.905 173.4 420.947Z" fill="#AEBCC4" stroke="#34424F" stroke-width="0.75" stroke-linecap="round" stroke-linejoin="round"/>
<path d="M210.11 222.737C210.11 222.737 176.11 275.007 173.4 382.267C205.07 377.817 231.51 365.477 243.76 358.967C245.979 357.782 247.835 356.017 249.128 353.859C250.421 351.701 251.102 349.232 251.1 346.717V332.387C251.1 238.547 210.11 222.737 210.11 222.737Z" fill="#79A8C6" stroke="#34424F" stroke-width="0.75" stroke-linecap="round" stroke-linejoin="round"/>
<path d="M175.66 248.917L207.86 197.437" stroke="#34424F" stroke-width="0.75" stroke-linecap="round" stroke-linejoin="round"/>
<path d="M174.46 359.497C174.46 359.497 223.4 348.287 251.06 328.697" stroke="#34424F" stroke-width="0.75" stroke-linecap="round" stroke-linejoin="round"/>
<path d="M190.24 77.8268C190.046 75.281 188.898 72.9023 187.025 71.1668C185.152 69.4313 182.693 68.467 180.14 68.4668H60.6001V185.587H193.94C194.513 185.586 195.079 185.466 195.603 185.236C196.128 185.006 196.599 184.671 196.988 184.25C197.376 183.83 197.674 183.333 197.862 182.792C198.05 182.252 198.124 181.678 198.08 181.107L190.24 77.8268Z" fill="#EEF3FC"/>
<path d="M210.11 222.737C210.11 222.737 176.11 275.007 173.4 382.267C205.07 377.817 231.51 365.477 243.76 358.967C245.979 357.782 247.835 356.017 249.128 353.859C250.421 351.701 251.102 349.232 251.1 346.717V332.387C251.1 238.547 210.11 222.737 210.11 222.737Z" fill="#79A8C6" stroke="#34424F" stroke-width="0.75" stroke-linecap="round" stroke-linejoin="round"/>
<path d="M-76.7597 77.8268C-76.568 75.2818 -75.4218 72.9032 -73.5507 71.1675C-71.6796 69.4318 -69.2218 68.4672 -66.6697 68.4668H52.8803V185.587H-80.4597C-81.0327 185.587 -81.5997 185.469 -82.1248 185.239C-82.6499 185.01 -83.1217 184.674 -83.5107 184.253C-83.8996 183.832 -84.1971 183.336 -84.3846 182.794C-84.572 182.253 -84.6452 181.678 -84.5997 181.107L-76.7597 77.8268Z" fill="#EEF3FC" stroke="#34424F" stroke-width="0.75" stroke-linecap="round" stroke-linejoin="round"/>
<path d="M194.06 42.1467H-80.5801" stroke="#34424F" stroke-width="0.75" stroke-linecap="round" stroke-linejoin="round"/>
<path d="M56.75 47.5166H56.74C54.1222 47.5166 52 49.6388 52 52.2566V58.3666C52 60.9844 54.1222 63.1066 56.74 63.1066H56.75C59.3678 63.1066 61.49 60.9844 61.49 58.3666V52.2566C61.49 49.6388 59.3678 47.5166 56.75 47.5166Z" fill="#CDD9E6" stroke="#34424F" stroke-width="0.75" stroke-linecap="round" stroke-linejoin="round"/>
<path d="M85.46 47.5166H85.45C82.8321 47.5166 80.71 49.6388 80.71 52.2566V58.3666C80.71 60.9844 82.8321 63.1066 85.45 63.1066H85.46C88.0778 63.1066 90.2 60.9844 90.2 58.3666V52.2566C90.2 49.6388 88.0778 47.5166 85.46 47.5166Z" fill="#CDD9E6" stroke="#34424F" stroke-width="0.75" stroke-linecap="round" stroke-linejoin="round"/>
<path d="M169.97 47.5166H169.96C167.342 47.5166 165.22 49.6388 165.22 52.2566V58.3666C165.22 60.9844 167.342 63.1066 169.96 63.1066H169.97C172.588 63.1066 174.71 60.9844 174.71 58.3666V52.2566C174.71 49.6388 172.588 47.5166 169.97 47.5166Z" fill="#CDD9E6" stroke="#34424F" stroke-width="0.75" stroke-linecap="round" stroke-linejoin="round"/>
<path d="M28.04 47.5166H28.03C25.4122 47.5166 23.29 49.6388 23.29 52.2566V58.3666C23.29 60.9844 25.4122 63.1066 28.03 63.1066H28.04C30.6579 63.1066 32.78 60.9844 32.78 58.3666V52.2566C32.78 49.6388 30.6579 47.5166 28.04 47.5166Z" fill="#CDD9E6" stroke="#34424F" stroke-width="0.75" stroke-linecap="round" stroke-linejoin="round"/>
<path d="M186.91 320.507C185.11 329.677 183.57 339.507 182.4 350.067C195.13 346.647 221.4 337.837 241.85 326.187C241.734 312.55 240.368 298.954 237.77 285.567C237.494 284.152 236.88 282.824 235.98 281.698C235.08 280.572 233.921 279.68 232.601 279.098C231.282 278.517 229.842 278.263 228.403 278.358C226.965 278.454 225.571 278.896 224.34 279.647C213.884 286.028 204.341 293.795 195.97 302.737C191.355 307.702 188.217 313.856 186.91 320.507Z" fill="#AEBCC4" stroke="#34424F" stroke-width="0.75" stroke-linecap="round" stroke-linejoin="round"/>
<path d="M224.84 279.387C224.84 279.387 229.5 306.727 227.51 333.537" stroke="#34424F" stroke-width="0.75" stroke-linecap="round" stroke-linejoin="round"/>
<path d="M202.07 338.397C206.98 338.397 210.96 334.417 210.96 329.507C210.96 324.597 206.98 320.617 202.07 320.617C197.16 320.617 193.18 324.597 193.18 329.507C193.18 334.417 197.16 338.397 202.07 338.397Z" fill="#EEF3FC" stroke="#34424F" stroke-width="0.75" stroke-linecap="round" stroke-linejoin="round"/>
<path d="M224.31 326.597C231.954 326.597 238.15 320.4 238.15 312.757C238.15 305.113 231.954 298.917 224.31 298.917C216.667 298.917 210.47 305.113 210.47 312.757C210.47 320.4 216.667 326.597 224.31 326.597Z" fill="#EEF3FC" stroke="#34424F" stroke-width="0.75" stroke-linecap="round" stroke-linejoin="round"/>
<path d="M224.31 324.167C230.611 324.167 235.72 319.058 235.72 312.757C235.72 306.455 230.611 301.347 224.31 301.347C218.008 301.347 212.9 306.455 212.9 312.757C212.9 319.058 218.008 324.167 224.31 324.167Z" fill="#EEB290" stroke="#34424F" stroke-width="0.75" stroke-linecap="round" stroke-linejoin="round"/>
<path d="M202.07 335.967C205.638 335.967 208.53 333.074 208.53 329.507C208.53 325.939 205.638 323.047 202.07 323.047C198.503 323.047 195.61 325.939 195.61 329.507C195.61 333.074 198.503 335.967 202.07 335.967Z" fill="#EEB290" stroke="#34424F" stroke-width="0.75" stroke-linecap="round" stroke-linejoin="round"/>
<path d="M155.55 224.947H-42.0698C-44.8305 224.946 -47.5622 225.51 -50.0977 226.602C-52.6333 227.694 -54.9193 229.292 -56.8158 231.298C-58.7124 233.304 -60.1797 235.676 -61.1278 238.269C-62.0759 240.861 -62.4849 243.62 -62.3298 246.377L-56.3298 352.947C-56.2327 354.65 -55.4877 356.252 -54.2474 357.423C-53.0072 358.594 -51.3658 359.247 -49.6598 359.247H163.1C164.806 359.245 166.446 358.591 167.685 357.42C168.925 356.249 169.671 354.649 169.77 352.947L175.77 246.377C175.925 243.624 175.517 240.868 174.572 238.278C173.626 235.688 172.162 233.318 170.27 231.312C168.378 229.307 166.097 227.708 163.566 226.613C161.035 225.519 158.308 224.952 155.55 224.947Z" fill="#CDD9E6" stroke="#34424F" stroke-width="0.75" stroke-linecap="round" stroke-linejoin="round"/>
<path d="M154.92 237.597H-39.29C-40.7286 237.597 -42.1525 237.887 -43.477 238.448C-44.8015 239.01 -45.9998 239.832 -47.0006 240.865C-48.0014 241.899 -48.7844 243.123 -49.3031 244.465C-49.8217 245.806 -50.0656 247.239 -50.02 248.677L-46.87 347.777C-46.8388 348.817 -46.4036 349.803 -45.6568 350.528C-44.9101 351.252 -43.9104 351.657 -42.87 351.657H156.35C157.39 351.657 158.39 351.252 159.137 350.528C159.884 349.803 160.319 348.817 160.35 347.777L163.56 246.517C163.598 245.359 163.402 244.205 162.984 243.124C162.567 242.043 161.937 241.058 161.131 240.225C160.324 239.393 159.359 238.732 158.292 238.28C157.225 237.828 156.079 237.596 154.92 237.597Z" fill="#EEF3FC" stroke="#34424F" stroke-width="0.75" stroke-linecap="round" stroke-linejoin="round"/>
<mask id="mask1_952_13639" style="mask-type:luminance" maskUnits="userSpaceOnUse" x="-51" y="237" width="215" height="115">
<path d="M154.92 237.597H-39.29C-40.7286 237.597 -42.1525 237.887 -43.477 238.448C-44.8015 239.01 -45.9998 239.832 -47.0006 240.865C-48.0014 241.899 -48.7844 243.123 -49.3031 244.465C-49.8217 245.806 -50.0656 247.239 -50.02 248.677L-46.87 347.777C-46.8388 348.817 -46.4036 349.803 -45.6568 350.528C-44.9101 351.252 -43.9104 351.657 -42.87 351.657H156.35C157.39 351.657 158.39 351.252 159.137 350.528C159.884 349.803 160.319 348.817 160.35 347.777L163.56 246.517C163.598 245.359 163.402 244.205 162.984 243.124C162.567 242.043 161.937 241.058 161.131 240.225C160.324 239.393 159.359 238.732 158.292 238.28C157.225 237.828 156.079 237.596 154.92 237.597Z" fill="white"/>
</mask>
<g mask="url(#mask1_952_13639)">
<path d="M165.78 247.667H-52.2202" stroke="#34424F" stroke-width="0.75" stroke-linecap="round" stroke-linejoin="round"/>
<path d="M163.19 268.467H-49.6401" stroke="#34424F" stroke-width="0.75" stroke-linecap="round" stroke-linejoin="round"/>
<path d="M163.19 289.257H-49.6401" stroke="#34424F" stroke-width="0.75" stroke-linecap="round" stroke-linejoin="round"/>
<path d="M165.78 258.067H-52.2202" stroke="#34424F" stroke-width="0.75" stroke-linecap="round" stroke-linejoin="round"/>
<path d="M163.19 278.857H-49.6401" stroke="#34424F" stroke-width="0.75" stroke-linecap="round" stroke-linejoin="round"/>
<path d="M163.19 299.657H-49.6401" stroke="#34424F" stroke-width="0.75" stroke-linecap="round" stroke-linejoin="round"/>
<path d="M163.19 310.057H-49.6401" stroke="#34424F" stroke-width="0.75" stroke-linecap="round" stroke-linejoin="round"/>
<path d="M163.19 320.457H-49.6401" stroke="#34424F" stroke-width="0.75" stroke-linecap="round" stroke-linejoin="round"/>
<path d="M163.19 330.857H-49.6401" stroke="#34424F" stroke-width="0.75" stroke-linecap="round" stroke-linejoin="round"/>
<path d="M163.19 341.257H-49.6401" stroke="#34424F" stroke-width="0.75" stroke-linecap="round" stroke-linejoin="round"/>
</g>
<path d="M108.36 237.647C102.886 275.409 99.9159 313.492 99.4702 351.647H109.12C109.566 313.472 112.539 275.369 118.02 237.587L108.36 237.647Z" fill="#CDD9E6" stroke="#34424F" stroke-width="0.75" stroke-linecap="round" stroke-linejoin="round"/>
<path d="M-4.54004 237.597C0.941458 275.378 3.91131 313.482 4.34996 351.657H14C13.5597 313.502 10.5898 275.418 5.10996 237.657L-4.54004 237.597Z" fill="#CDD9E6" stroke="#34424F" stroke-width="0.75" stroke-linecap="round" stroke-linejoin="round"/>
<mask id="mask2_952_13639" style="mask-type:luminance" maskUnits="userSpaceOnUse" x="60" y="68" width="139" height="118">
<path d="M190.24 77.8268C190.046 75.281 188.898 72.9023 187.025 71.1668C185.152 69.4313 182.693 68.467 180.14 68.4668H60.6001V185.587H193.94C194.513 185.586 195.079 185.466 195.603 185.236C196.128 185.006 196.599 184.671 196.988 184.25C197.376 183.83 197.674 183.333 197.862 182.792C198.05 182.252 198.124 181.678 198.08 181.107L190.24 77.8268Z" fill="white"/>
</mask>
<g mask="url(#mask2_952_13639)">
<path d="M136.83 134.697C135.347 135.796 133.61 136.501 131.78 136.747C131.248 136.795 130.714 136.815 130.18 136.807C129.646 136.814 129.112 136.794 128.58 136.747C126.768 136.493 125.049 135.788 123.58 134.697C120.48 132.41 118.06 129.323 116.58 125.767H116.46C116.46 125.767 118.46 131.097 116.13 134.267L112.08 136.067C113.843 139.151 116.347 141.747 119.366 143.619C122.385 145.49 125.824 146.579 129.37 146.787C129.65 146.787 130.74 146.787 131.01 146.787C134.558 146.581 137.999 145.493 141.02 143.621C144.041 141.749 146.547 139.152 148.31 136.067L144.31 134.267C141.94 131.097 143.93 125.887 143.93 125.887H143.85C142.341 129.399 139.917 132.442 136.83 134.697Z" fill="#FFEEDE"/>
<path d="M140.85 94.8669C142.331 96.1561 143.53 97.7373 144.371 99.5114C145.213 101.286 145.679 103.214 145.74 105.177C145.74 105.177 145.79 107.237 145.74 108.177C146.479 107.371 147.348 106.695 148.31 106.177C148.676 106.017 149.086 105.988 149.47 106.095C149.855 106.203 150.191 106.44 150.42 106.767C150.628 107.192 150.718 107.665 150.68 108.137C150.68 100.457 150.14 95.1369 147.12 90.0369C145.666 92.3368 143.445 94.0479 140.85 94.8669Z" fill="#B8A191"/>
<path d="M109.98 106.827C110.211 106.499 110.549 106.262 110.935 106.154C111.321 106.047 111.733 106.076 112.1 106.237C113.059 106.755 113.925 107.431 114.66 108.237C114.58 107.237 114.66 105.237 114.66 105.237V105.107C114.729 103.782 115.069 102.486 115.658 101.298C116.246 100.109 117.072 99.0537 118.083 98.1959C119.094 97.338 120.271 96.696 121.539 96.3093C122.808 95.9225 124.142 95.7992 125.46 95.9468C128.162 96.1468 130.872 96.2002 133.58 96.1068C136.042 95.9343 138.483 95.5325 140.87 94.9068C143.441 94.0948 145.645 92.4068 147.1 90.1368C147.415 89.6224 147.689 89.0841 147.92 88.5268C148.321 87.4498 148.57 86.3224 148.66 85.1768L148.79 83.8768C140.22 85.0068 131.13 77.5968 121.65 80.3768C119.118 81.0572 116.778 82.3139 114.813 84.0487C112.847 85.7834 111.31 87.9492 110.32 90.3768C108.54 94.8668 108.42 99.8968 108.92 104.647C109.207 107.411 109.691 110.152 110.37 112.847C109.973 111.338 109.758 109.787 109.73 108.227C109.686 107.746 109.772 107.262 109.98 106.827Z" fill="#B8A191"/>
<path d="M150.38 106.827C150.15 106.5 149.815 106.263 149.43 106.155C149.046 106.048 148.636 106.076 148.27 106.237C147.307 106.755 146.439 107.431 145.7 108.237C145.79 107.237 145.7 105.237 145.7 105.237C145.639 103.274 145.173 101.345 144.331 99.5713C143.49 97.7972 142.291 96.216 140.81 94.9268C138.422 95.5525 135.982 95.9542 133.52 96.1268C130.832 96.2113 128.141 96.1512 125.46 95.9468C124.144 95.7991 122.812 95.9215 121.546 96.3065C120.279 96.6914 119.104 97.3308 118.093 98.1855C117.082 99.0401 116.256 100.092 115.666 101.277C115.076 102.462 114.733 103.755 114.66 105.077V105.207C114.66 105.207 114.66 107.267 114.66 108.207C113.925 107.401 113.059 106.725 112.1 106.207C111.733 106.046 111.321 106.017 110.935 106.124C110.548 106.232 110.211 106.469 109.98 106.797C109.77 107.235 109.684 107.723 109.73 108.207C109.761 110.669 110.264 113.103 111.21 115.377C111.455 116.094 111.882 116.735 112.45 117.237C112.81 117.456 113.227 117.564 113.648 117.548C114.07 117.532 114.477 117.393 114.82 117.147C114.82 117.147 115.06 119.827 115.27 121.297C116.174 126.663 119.143 131.461 123.54 134.667C125.009 135.758 126.728 136.463 128.54 136.717C129.072 136.764 129.606 136.784 130.14 136.777C130.674 136.785 131.208 136.765 131.74 136.717C133.569 136.471 135.307 135.766 136.79 134.667C141.187 131.461 144.155 126.663 145.06 121.297C145.26 119.827 145.51 117.147 145.51 117.147C145.853 117.393 146.26 117.532 146.681 117.548C147.103 117.564 147.52 117.456 147.88 117.237C148.445 116.732 148.872 116.092 149.12 115.377C150.066 113.103 150.568 110.669 150.6 108.207C150.65 107.735 150.574 107.259 150.38 106.827Z" fill="#FFEEDE"/>
<path d="M136.53 124.767C136.53 124.767 133.34 122.767 132.23 122.767H128.13C127.03 122.767 123.84 124.767 123.84 124.767C121.47 124.547 119.38 122.317 117.49 119.857L114.82 117.177C114.82 117.177 115.06 119.857 115.27 121.327C116.174 126.693 119.143 131.491 123.54 134.697C125.009 135.788 126.728 136.493 128.54 136.747C129.072 136.794 129.606 136.814 130.14 136.807C130.674 136.815 131.208 136.795 131.74 136.747C133.569 136.501 135.307 135.796 136.79 134.697C141.187 131.491 144.155 126.693 145.06 121.327C145.26 119.857 145.51 117.177 145.51 117.177L142.84 119.857C140.98 122.317 138.9 124.547 136.53 124.767Z" fill="#B8A191"/>
<path d="M172.3 147.447C169.38 145.567 155.3 139.217 148.3 136.067C146.535 139.151 144.029 141.747 141.008 143.619C137.987 145.49 134.548 146.579 131 146.787C130.73 146.787 129.64 146.787 129.36 146.787C125.814 146.58 122.375 145.491 119.356 143.619C116.337 141.747 113.833 139.151 112.07 136.067C105.07 139.217 90.9899 145.567 88.0699 147.447C84.1499 149.967 65.6899 185.447 65.6899 185.447C65.6899 185.447 68.5199 180.017 72.1899 173.257L72.4199 173.317C76.9499 174.397 87.7999 178.907 92.9699 184.727L93.6699 185.447H166.67L167.36 184.727C172.53 178.907 183.36 174.397 187.92 173.317L188.15 173.257C191.82 180.017 194.64 185.447 194.64 185.447C194.64 185.447 176.22 149.947 172.3 147.447Z" fill="#CDD9E6"/>
<path d="M72.46 173.327L72.23 173.267C68.56 180.027 65.73 185.457 65.73 185.457H93.73L93.03 184.737C87.8 178.947 76.95 174.407 72.46 173.327Z" fill="#FFEEDE"/>
<path d="M187.95 173.327L188.18 173.267C191.85 180.027 194.67 185.457 194.67 185.457H166.67L167.36 184.737C172.56 178.947 183.46 174.407 187.95 173.327Z" fill="#FFEEDE"/>
<path d="M72.46 173.327C76.99 174.407 87.84 178.917 93.01 184.737L93.71 185.457" stroke="#34424F" stroke-width="0.75" stroke-linecap="round" stroke-linejoin="round"/>
<path d="M187.95 173.327C183.41 174.407 172.56 178.917 167.39 184.737L166.7 185.457" stroke="#34424F" stroke-width="0.75" stroke-linecap="round" stroke-linejoin="round"/>
<path d="M116.46 125.767C116.46 125.767 118.46 131.097 116.13 134.267C116.13 134.267 92.02 144.917 88.13 147.447C84.24 149.977 65.75 185.447 65.75 185.447" stroke="#34424F" stroke-width="0.75" stroke-linecap="round" stroke-linejoin="round"/>
<path d="M194.67 185.457C194.67 185.457 176.22 149.967 172.3 147.457C168.38 144.947 144.3 134.277 144.3 134.277C141.93 131.107 143.92 125.897 143.92 125.897" stroke="#34424F" stroke-width="0.75" stroke-linecap="round" stroke-linejoin="round"/>
<path d="M93.0601 149.157C95.4933 153.698 96.6932 158.797 96.5401 163.947" stroke="#34424F" stroke-width="0.75" stroke-linecap="round" stroke-linejoin="round"/>
<path d="M167.31 148.027C166.205 152.929 165.565 157.924 165.4 162.947" stroke="#34424F" stroke-width="0.75" stroke-linecap="round" stroke-linejoin="round"/>
<path d="M112.07 136.077C113.832 139.161 116.337 141.757 119.356 143.628C122.375 145.5 125.814 146.589 129.36 146.797C129.64 146.797 130.73 146.797 131 146.797C134.548 146.591 137.988 145.503 141.009 143.631C144.03 141.759 146.536 139.162 148.3 136.077" stroke="#34424F" stroke-width="0.75" stroke-linecap="round" stroke-linejoin="round"/>
<path d="M150.38 106.827C150.15 106.5 149.815 106.263 149.43 106.155C149.046 106.048 148.636 106.076 148.27 106.237C147.307 106.755 146.439 107.431 145.7 108.237C145.79 107.237 145.7 105.237 145.7 105.237C145.639 103.274 145.173 101.345 144.331 99.5713C143.49 97.7972 142.291 96.216 140.81 94.9268C138.422 95.5525 135.982 95.9542 133.52 96.1268C130.832 96.2113 128.141 96.1512 125.46 95.9468C124.144 95.7991 122.812 95.9215 121.546 96.3065C120.279 96.6914 119.104 97.3308 118.093 98.1855C117.082 99.0401 116.256 100.092 115.666 101.277C115.076 102.462 114.733 103.755 114.66 105.077V105.207C114.66 105.207 114.66 107.267 114.66 108.207C113.925 107.401 113.059 106.725 112.1 106.207C111.733 106.046 111.321 106.017 110.935 106.124C110.548 106.232 110.211 106.469 109.98 106.797C109.77 107.235 109.684 107.723 109.73 108.207C109.761 110.669 110.264 113.103 111.21 115.377C111.455 116.094 111.882 116.735 112.45 117.237C112.81 117.456 113.227 117.564 113.648 117.548C114.07 117.532 114.477 117.393 114.82 117.147C114.82 117.147 115.06 119.827 115.27 121.297C116.174 126.663 119.143 131.461 123.54 134.667C125.009 135.758 126.728 136.463 128.54 136.717C129.072 136.764 129.606 136.784 130.14 136.777C130.674 136.785 131.208 136.765 131.74 136.717C133.569 136.471 135.307 135.766 136.79 134.667C141.187 131.461 144.155 126.663 145.06 121.297C145.26 119.827 145.51 117.147 145.51 117.147C145.853 117.393 146.26 117.532 146.681 117.548C147.103 117.564 147.52 117.456 147.88 117.237C148.445 116.732 148.872 116.092 149.12 115.377C150.066 113.103 150.568 110.669 150.6 108.207C150.65 107.735 150.574 107.259 150.38 106.827Z" stroke="#34424F" stroke-width="0.75" stroke-linecap="round" stroke-linejoin="round"/>
<path d="M119.23 106.017C119.23 106.017 123.52 104.287 127.07 106.107" stroke="#34424F" stroke-width="0.75" stroke-linecap="round" stroke-linejoin="round"/>
<path d="M141.13 106.017C141.13 106.017 136.85 104.287 133.3 106.107" stroke="#34424F" stroke-width="0.75" stroke-linecap="round" stroke-linejoin="round"/>
<path d="M123.15 111.887C123.796 111.887 124.32 111.233 124.32 110.427C124.32 109.62 123.796 108.967 123.15 108.967C122.504 108.967 121.98 109.62 121.98 110.427C121.98 111.233 122.504 111.887 123.15 111.887Z" fill="#34424F"/>
<path d="M137.22 111.887C137.866 111.887 138.39 111.233 138.39 110.427C138.39 109.62 137.866 108.967 137.22 108.967C136.574 108.967 136.05 109.62 136.05 110.427C136.05 111.233 136.574 111.887 137.22 111.887Z" fill="#34424F"/>
<path d="M133.69 126.087C132.634 126.726 131.424 127.063 130.19 127.063C128.956 127.063 127.746 126.726 126.69 126.087" stroke="#34424F" stroke-width="0.75" stroke-linecap="round" stroke-linejoin="round"/>
<path d="M127.58 117.867C128.183 118.404 128.931 118.751 129.73 118.867C130.517 118.947 131.311 118.816 132.03 118.487C132.63 118.217 133.23 117.577 132.88 116.887C131.88 114.887 131.81 110.237 131.81 110.237" stroke="#34424F" stroke-width="0.75" stroke-linecap="round" stroke-linejoin="round"/>
<path d="M142.88 119.857C140.98 122.317 138.88 124.547 136.53 124.767C136.53 124.767 133.34 122.767 132.23 122.767H128.13C127.03 122.767 123.84 124.767 123.84 124.767C121.47 124.547 119.38 122.317 117.49 119.857" stroke="#34424F" stroke-width="0.75" stroke-linecap="round" stroke-linejoin="round"/>
<path d="M140.85 94.8668C142.418 94.3788 143.861 93.5554 145.078 92.4536C146.295 91.3519 147.258 89.9982 147.9 88.4868C148.301 87.4098 148.55 86.2823 148.64 85.1368L148.77 83.8368C140.2 84.9668 131.11 77.5568 121.63 80.3368C119.098 81.0172 116.758 82.2739 114.793 84.0086C112.827 85.7434 111.29 87.9092 110.3 90.3368C108.52 94.8268 108.4 99.8568 108.9 104.607C109.187 107.371 109.671 110.112 110.35 112.807" stroke="#34424F" stroke-width="0.75" stroke-linecap="round" stroke-linejoin="round"/>
<path d="M150.64 108.237C150.64 100.537 150.1 95.1867 147.08 90.0967" stroke="#34424F" stroke-width="0.75" stroke-linecap="round" stroke-linejoin="round"/>
<path d="M130.18 160.137C121.772 160.137 113.553 162.63 106.563 167.301C99.5719 171.972 94.1233 178.611 90.9058 186.379C87.6883 194.147 86.8465 202.694 88.4868 210.94C90.127 219.186 94.1757 226.761 100.121 232.706C106.066 238.651 113.641 242.7 121.887 244.34C130.133 245.98 138.68 245.138 146.448 241.921C154.215 238.703 160.855 233.255 165.526 226.264C170.197 219.273 172.69 211.054 172.69 202.647C172.69 191.372 168.211 180.56 160.239 172.588C152.267 164.615 141.454 160.137 130.18 160.137ZM130.18 237.647C123.258 237.647 116.491 235.594 110.735 231.748C104.979 227.902 100.493 222.436 97.8442 216.041C95.1951 209.645 94.502 202.608 95.8525 195.819C97.2029 189.029 100.536 182.793 105.431 177.898C110.326 173.003 116.562 169.67 123.352 168.319C130.141 166.969 137.178 167.662 143.574 170.311C149.969 172.96 155.436 177.446 159.281 183.202C163.127 188.957 165.18 195.724 165.18 202.647C165.18 207.243 164.275 211.794 162.516 216.041C160.757 220.287 158.179 224.145 154.929 227.395C151.679 230.645 147.82 233.224 143.574 234.982C139.327 236.741 134.776 237.647 130.18 237.647Z" fill="#AEBCC4" stroke="#34424F" stroke-width="0.75" stroke-linecap="round" stroke-linejoin="round"/>
<path d="M164.18 169.807C163.772 169.263 163.228 168.836 162.604 168.57C161.979 168.303 161.294 168.205 160.62 168.287C158.28 168.537 155.62 169.287 151.33 172.767C146.51 176.767 150.6 179.017 150.6 179.017C150.5 179.564 150.516 180.127 150.647 180.668C150.777 181.209 151.019 181.717 151.357 182.16C151.695 182.602 152.121 182.969 152.609 183.237C153.097 183.505 153.635 183.669 154.19 183.717C154.19 183.717 152.29 187.717 157.13 188.007C156.3 190.827 158.79 191.007 158.79 191.007C158.79 191.007 168.06 188.267 170.14 185.557C172.83 182.067 166.86 173.367 164.18 169.807Z" fill="#FFEEDE"/>
<path d="M161.4 173.327C161.4 173.327 153.84 176.327 150.6 179.017C150.6 179.017 146.51 176.747 151.33 172.767C155.6 169.247 158.28 168.537 160.62 168.287C161.294 168.205 161.979 168.303 162.604 168.57C163.228 168.836 163.772 169.263 164.18 169.807C166.86 173.367 172.83 182.067 170.18 185.557C168.1 188.267 158.83 191.007 158.83 191.007C158.83 191.007 156.34 190.827 157.17 188.007L164.98 183.567" stroke="#34424F" stroke-width="0.75" stroke-linecap="round" stroke-linejoin="round"/>
<path d="M150.6 179.017C150.501 179.564 150.516 180.127 150.647 180.668C150.777 181.209 151.019 181.717 151.357 182.16C151.695 182.602 152.121 182.969 152.609 183.237C153.097 183.505 153.635 183.669 154.19 183.717C154.19 183.717 161.19 179.387 163.49 178.197" stroke="#34424F" stroke-width="0.75" stroke-linecap="round" stroke-linejoin="round"/>
<path d="M154.19 183.717C154.19 183.717 152.29 187.717 157.13 188.007" stroke="#34424F" stroke-width="0.75" stroke-linecap="round" stroke-linejoin="round"/>
<path d="M96.18 169.807C96.5907 169.264 97.1363 168.838 97.7626 168.571C98.3889 168.305 99.074 168.206 99.75 168.287C102.09 168.537 104.75 169.287 109.03 172.767C113.85 176.767 109.77 179.017 109.77 179.017C109.869 179.564 109.854 180.127 109.723 180.668C109.593 181.209 109.351 181.717 109.013 182.16C108.675 182.602 108.249 182.969 107.761 183.237C107.273 183.505 106.735 183.669 106.18 183.717C106.18 183.717 108.08 187.717 103.24 188.007C104.07 190.827 101.58 191.007 101.58 191.007C101.58 191.007 92.31 188.267 90.22 185.557C87.53 182.067 93.51 173.367 96.18 169.807Z" fill="#FFEEDE"/>
<path d="M98.9599 173.327C98.9599 173.327 106.52 176.327 109.77 179.017C109.77 179.017 113.85 176.747 109.03 172.767C104.77 169.247 102.09 168.537 99.7499 168.287C99.074 168.206 98.3888 168.305 97.7625 168.571C97.1362 168.838 96.5906 169.264 96.1799 169.807C93.5099 173.367 87.5299 182.067 90.1799 185.557C92.2699 188.267 101.54 191.007 101.54 191.007C101.54 191.007 104.03 190.827 103.2 188.007L95.4599 183.567" stroke="#34424F" stroke-width="0.75" stroke-linecap="round" stroke-linejoin="round"/>
<path d="M109.77 179.017C109.869 179.564 109.853 180.127 109.723 180.668C109.593 181.209 109.351 181.717 109.013 182.16C108.675 182.602 108.249 182.969 107.761 183.237C107.273 183.505 106.734 183.669 106.18 183.717C106.18 183.717 99.1799 179.387 96.8799 178.197" stroke="#34424F" stroke-width="0.75" stroke-linecap="round" stroke-linejoin="round"/>
<path d="M106.18 183.717C106.18 183.717 108.08 187.717 103.24 188.007" stroke="#34424F" stroke-width="0.75" stroke-linecap="round" stroke-linejoin="round"/>
</g>
<path d="M190.24 77.8268C190.046 75.281 188.898 72.9023 187.025 71.1668C185.152 69.4313 182.693 68.467 180.14 68.4668H60.6001V185.587H193.94C194.513 185.586 195.079 185.466 195.603 185.236C196.128 185.006 196.599 184.671 196.988 184.25C197.376 183.83 197.674 183.333 197.862 182.792C198.05 182.252 198.124 181.678 198.08 181.107L190.24 77.8268Z" stroke="#34424F" stroke-width="0.75" stroke-linecap="round" stroke-linejoin="round"/>
<path d="M114.46 114.497C114.252 113.7 113.877 112.957 113.36 112.317" stroke="#34424F" stroke-width="0.75" stroke-linecap="round" stroke-linejoin="round"/>
<path d="M145.89 114.497C146.097 113.702 146.468 112.959 146.98 112.317" stroke="#34424F" stroke-width="0.75" stroke-linecap="round" stroke-linejoin="round"/>
<path d="M113.51 141.557C113.51 141.557 117.39 148.427 128.61 149.197" stroke="#34424F" stroke-width="0.75" stroke-linecap="round" stroke-linejoin="round"/>
<path d="M132.74 149.197C136.24 148.791 139.598 147.579 142.55 145.657" stroke="#34424F" stroke-width="0.75" stroke-linecap="round" stroke-linejoin="round"/>
<path d="M346.85 160.807C346.681 160.71 346.517 160.603 346.36 160.487C342.2 165.297 330.81 168.077 323.77 167.157C320.323 166.839 317.049 165.499 314.37 163.307C314.37 163.307 311.03 164.147 309.1 164.477L311.02 181.947C312.058 191.317 313.783 200.599 316.18 209.717L320.54 226.247C320.54 226.247 342.26 188.487 351.54 162.077C349.903 162.002 348.302 161.569 346.85 160.807Z" fill="#CDD9E6"/>
<path d="M308.55 122.947C308.077 125.072 308.053 127.272 308.48 129.407C310.12 134.477 308.29 138.237 309.74 143.237C310.88 147.177 313.2 153.417 316.63 155.937C316.747 156.01 316.867 156.077 316.99 156.137L317.66 156.487L317.49 158.487C317.363 159.46 317.01 160.39 316.457 161.201C315.905 162.012 315.169 162.682 314.31 163.157C314.31 163.157 316.99 166.157 323.78 167.067C330.78 167.987 342.21 165.207 346.37 160.397C346.063 160.171 345.784 159.909 345.54 159.617C344.977 158.942 344.519 158.187 344.18 157.377C342.432 153.127 341.963 148.459 342.83 143.947C351.54 138.107 349.83 127.467 349.83 127.467" fill="#FFEEDE"/>
<path d="M338.79 132.737C338.79 132.737 343.01 134.067 343.13 136.257C343.23 138.017 340.01 141.437 340.01 141.437C339.85 141.677 341.65 143.547 342.83 143.937C344.33 142.944 345.644 141.695 346.71 140.247C347.035 139.816 347.333 139.365 347.6 138.897C347.74 138.677 347.86 138.447 347.98 138.217C349.115 136.015 349.796 133.607 349.98 131.137C349.98 130.767 349.98 130.427 349.98 130.137C349.98 129.847 349.98 129.517 349.98 129.237C349.98 128.957 349.98 128.487 349.98 128.237C349.98 127.777 349.9 127.517 349.9 127.517L335.9 125.357C335.9 125.357 335.85 130.427 338.79 132.737Z" fill="#B8A191"/>
<path d="M262.66 216.297L267.05 225.527C265.897 222.312 264.427 219.22 262.66 216.297Z" fill="#CDD9E6" stroke="#34424F" stroke-width="0.75" stroke-linecap="round" stroke-linejoin="round"/>
<path d="M245.12 180.107C244.28 176.257 242.5 172.867 241.24 169.167C240.8 167.887 240.45 166.567 240.12 165.257C239.673 163.463 239.263 161.667 238.89 159.867C238.203 159.96 237.547 160.213 236.976 160.605C236.405 160.998 235.933 161.519 235.6 162.127C233.6 165.487 235.6 170.897 236.02 172.517C234.734 172.222 233.402 172.181 232.1 172.397L226.79 173.327C226.79 173.327 222.87 174.557 224.29 178.387C224.29 178.387 221.65 180.717 223.86 184.877C223.86 186.877 224.08 189.517 225.86 190.877C225.86 190.877 226.42 197.957 231.38 197.507H233C233.55 198.507 251.44 237.447 252.58 239.897C259.27 237.717 266.94 226.897 268.05 225.017C267.71 224.277 246.16 193.117 245.89 192.327C246.368 188.24 246.107 184.101 245.12 180.107Z" fill="#FFEEDE"/>
<path d="M236.02 172.517C235.63 170.897 233.61 165.517 235.6 162.127C235.822 161.722 236.106 161.355 236.44 161.037C236.665 160.826 236.942 160.68 237.243 160.611C237.543 160.543 237.857 160.556 238.151 160.648C238.445 160.741 238.709 160.91 238.916 161.138C239.123 161.366 239.266 161.645 239.33 161.947C239.58 163.057 239.84 164.157 240.12 165.257C240.45 166.567 240.8 167.887 241.24 169.167C242.5 172.867 244.24 176.257 245.12 180.107C246.089 184.08 246.34 188.195 245.86 192.257L247.51 195.447" stroke="#34424F" stroke-width="0.75" stroke-linecap="round" stroke-linejoin="round"/>
<path d="M232.97 197.437H231.35C226.35 197.887 225.83 190.807 225.83 190.807C224.08 189.487 223.83 186.887 223.83 184.807C221.62 180.647 224.26 178.317 224.26 178.317C222.84 174.487 226.76 173.257 226.76 173.257L232.08 172.327C234.3 171.945 236.584 172.337 238.55 173.437L240.97 174.797C241.081 175.118 241.103 175.463 241.032 175.795C240.96 176.127 240.8 176.434 240.567 176.681C240.334 176.928 240.038 177.107 239.711 177.198C239.383 177.289 239.037 177.289 238.71 177.197L238.22 177.057C236.848 176.669 235.408 176.584 234 176.807L227.57 177.807" stroke="#34424F" stroke-width="0.75" stroke-linecap="round" stroke-linejoin="round"/>
<path d="M228.2 183.677L234.62 182.587C235.992 182.34 237.389 182.263 238.78 182.357C240.02 182.507 241.84 182.697 242.15 181.057C242.253 180.592 242.213 180.107 242.034 179.666C241.856 179.225 241.547 178.849 241.15 178.587C240.195 177.925 239.147 177.409 238.04 177.057" stroke="#34424F" stroke-width="0.75" stroke-linecap="round" stroke-linejoin="round"/>
<path d="M232.97 197.427L237.28 197.217" stroke="#34424F" stroke-width="0.75" stroke-linecap="round" stroke-linejoin="round"/>
<path d="M230.51 194.047L235.11 193.147C235.44 193.082 235.774 193.048 236.11 193.047H238.8C239.181 193.046 239.554 192.933 239.87 192.721C240.187 192.509 240.434 192.209 240.58 191.857C240.684 191.608 240.735 191.34 240.729 191.07C240.723 190.8 240.66 190.535 240.545 190.291C240.43 190.047 240.265 189.83 240.061 189.653C239.857 189.477 239.618 189.345 239.36 189.267L236.59 188.437C235.684 188.164 234.723 188.129 233.8 188.337L229.45 189.337" stroke="#34424F" stroke-width="0.75" stroke-linecap="round" stroke-linejoin="round"/>
<path d="M234.46 188.237C234.75 188.237 236.63 188.027 236.92 188.027H240.16C240.619 188.025 241.068 187.888 241.449 187.631C241.829 187.375 242.126 187.011 242.3 186.587C242.424 186.287 242.484 185.965 242.477 185.641C242.469 185.317 242.393 184.999 242.255 184.706C242.116 184.413 241.918 184.152 241.673 183.94C241.427 183.728 241.14 183.571 240.83 183.477L238.4 182.867C237.199 182.652 235.98 182.549 234.76 182.557" stroke="#34424F" stroke-width="0.75" stroke-linecap="round" stroke-linejoin="round"/>
<path d="M232.97 197.427L236.2 204.067" stroke="#34424F" stroke-width="0.75" stroke-linecap="round" stroke-linejoin="round"/>
<path d="M288.46 171.947C286.06 173.677 270.95 190.727 262.18 215.537C261.211 213.979 260.159 212.473 259.03 211.027C255.991 207.249 253.211 203.27 250.71 199.117C249.569 197.174 248.583 195.144 247.76 193.047C248.31 194.627 246.68 198.047 243.98 200.527C241.28 203.007 237.36 204.797 234.53 203.397C235.73 206.887 236.91 210.217 237.36 211.677C239.01 216.947 240.86 222.127 242.64 227.357C245.98 237.197 254.43 249.747 264.16 253.357C269.16 255.227 272.75 249.487 275.32 246.197C278.24 242.447 280.81 238.447 283.4 234.477C285 232.007 286.62 229.547 288.29 227.117L299.66 202.947C301.46 193.687 295.73 177.947 288.46 171.947Z" fill="#CDD9E6" stroke="#34424F" stroke-width="0.75" stroke-linecap="round" stroke-linejoin="round"/>
<path d="M375.98 243.667C372.67 245.797 369.65 243.927 366.74 243.817C352.79 243.287 350.41 250.267 333.45 243.417C332.76 252.107 324.92 255.687 324.92 255.687L367.77 270.397C373.31 271.817 379.184 271.036 384.16 268.217C401.34 258.787 390.7 219.947 386.95 196.807C384.95 184.447 378.34 175.937 373.38 172.137L355.28 190.717L349.65 210.217L356.81 251.637" fill="#CDD9E6"/>
<path d="M375.98 243.667C372.67 245.797 369.65 243.927 366.74 243.817C352.79 243.287 350.41 250.267 333.45 243.417C332.76 252.107 324.92 255.687 324.92 255.687L367.77 270.397C373.31 271.817 379.184 271.036 384.16 268.217C401.34 258.787 390.7 219.947 386.95 196.807C384.95 184.447 378.34 175.937 373.38 172.137L355.28 190.717L349.65 210.217L356.81 251.637" stroke="#34424F" stroke-width="0.75" stroke-linecap="round" stroke-linejoin="round"/>
<path d="M262.18 215.537C264.1 218.717 265.73 222.064 267.05 225.537Z" fill="#CDD9E6"/>
<path d="M262.18 215.537C264.1 218.717 265.73 222.064 267.05 225.537" stroke="#34424F" stroke-width="0.75" stroke-linecap="round" stroke-linejoin="round"/>
<path d="M314.46 316.357C314.46 316.357 325.62 317.427 328.98 324.147L328.25 403.857L293.38 414.727C293.38 414.727 289.54 354.417 287.71 325.297C285.88 296.177 291.38 276.457 291.38 276.457C291.38 276.457 345.02 282.567 367.05 276.457C367.05 276.457 372.55 302.947 370.95 327.877C369.35 352.807 368.27 377.047 368.27 377.047L333.78 398.947C333.78 398.947 332.98 338.707 329 324.177" fill="#79A8C6"/>
<path d="M314.46 316.357C314.46 316.357 325.62 317.427 328.98 324.147L328.25 403.857L293.38 414.727C293.38 414.727 289.54 354.417 287.71 325.297C285.88 296.177 291.38 276.457 291.38 276.457C291.38 276.457 345.02 282.567 367.05 276.457C367.05 276.457 372.55 302.947 370.95 327.877C369.35 352.807 368.27 377.047 368.27 377.047L333.78 398.947C333.78 398.947 332.98 338.707 329 324.177" stroke="#34424F" stroke-width="0.75" stroke-linecap="round" stroke-linejoin="round"/>
<path d="M290.46 257.397C290.33 267.937 287.11 295.147 287.11 295.147C317.92 318.007 366.91 301.977 371.42 299.357C371.42 299.357 367.95 268.737 368.04 262.807" fill="#CDD9E6"/>
<path d="M290.46 257.397C290.33 267.937 287.11 295.147 287.11 295.147C317.92 318.007 366.91 301.977 371.42 299.357C371.42 299.357 367.95 268.737 368.04 262.807" stroke="#34424F" stroke-width="0.75" stroke-linecap="round" stroke-linejoin="round"/>
<path d="M373.73 292.167C367.8 258.287 365.08 224.737 365.08 224.737C357.22 209.307 369.08 176.137 374.67 170.947C366.2 164.487 358.87 162.757 351.85 161.157C342.76 187.597 320.54 226.217 320.54 226.217L316.18 209.687C313.784 200.579 312.06 191.307 311.02 181.947L309.02 164.037V163.787C298.26 165.517 293.32 167.267 286.6 171.667C294.7 204.377 288.3 227.187 288.3 227.187C290.53 261.817 286.07 288.037 286.07 288.037C294.67 293.867 305.58 297.537 315.41 298.907L320.05 281.477C322.143 287.795 324.755 293.929 327.86 299.817C351.16 300.037 373.73 292.167 373.73 292.167Z" fill="#EEB290" stroke="#34424F" stroke-width="0.75" stroke-linecap="round" stroke-linejoin="round"/>
<path d="M308.79 203.947C306.59 192.467 304.5 173.947 303.53 164.757C300.359 165.365 297.255 166.279 294.26 167.487C295.26 177.077 297.26 194.367 299.37 205.287L308.79 203.947Z" fill="white" stroke="#34424F" stroke-width="0.75" stroke-linecap="round" stroke-linejoin="round"/>
<path d="M350.17 203.707C355.95 191.707 363.57 172.317 366.17 165.707C363.297 164.35 360.304 163.262 357.23 162.457C354.37 169.817 346.52 189.667 340.83 201.237C340.8 201.237 349.95 204.157 350.17 203.707Z" fill="white" stroke="#34424F" stroke-width="0.75" stroke-linecap="round" stroke-linejoin="round"/>
<path d="M368.67 257.197C368.16 252.897 367.73 248.907 367.37 245.327C337.37 255.027 301.31 245.727 288.87 241.917C288.93 245.917 288.87 249.677 288.87 253.267C300.09 257.867 329.81 266.227 368.67 257.197Z" fill="white" stroke="#34424F" stroke-width="0.75" stroke-linecap="round" stroke-linejoin="round"/>
<path d="M371.02 275.137C370.4 270.867 369.85 266.737 369.35 262.797C337.46 273.717 302.24 264.947 288.61 260.447C288.44 264.447 288.2 268.137 287.94 271.397C300.03 276.027 331.29 284.577 371.02 275.137Z" fill="white" stroke="#34424F" stroke-width="0.75" stroke-linecap="round" stroke-linejoin="round"/>
<path d="M320.54 226.217L320.04 281.437" stroke="#34424F" stroke-width="0.75" stroke-linecap="round" stroke-linejoin="round"/>
<path d="M364.296 213.568L327.655 204.778C325.577 204.279 323.488 205.56 322.989 207.638L311.347 256.171C310.848 258.25 312.129 260.339 314.207 260.837L350.847 269.627C352.926 270.126 355.015 268.845 355.513 266.767L367.156 218.234C367.655 216.155 366.374 214.066 364.296 213.568Z" fill="#AEBCC4" stroke="#34424F" stroke-width="0.75" stroke-linecap="round" stroke-linejoin="round"/>
<path d="M340.33 237.297C342.843 237.297 344.88 235.26 344.88 232.747C344.88 230.234 342.843 228.197 340.33 228.197C337.817 228.197 335.78 230.234 335.78 232.747C335.78 235.26 337.817 237.297 340.33 237.297Z" fill="#CDD9E6" stroke="#34424F" stroke-width="0.75" stroke-linecap="round" stroke-linejoin="round"/>
<path d="M334.73 240.427L332.13 235.507C331.44 233.926 330.56 232.435 329.51 231.067L327.95 229.067C326.721 227.461 325.647 225.744 324.74 223.937C323.35 221.187 322.8 221.107 322.8 221.107C321.01 220.357 320.7 223.107 320.7 223.107C320.563 224.495 320.715 225.898 321.147 227.225C321.579 228.552 322.282 229.775 323.21 230.817C322.43 230.407 318.02 228.477 318.02 228.477L318.7 225.617C317.108 225.367 315.481 225.724 314.14 226.617C313.604 227.058 313.22 227.656 313.041 228.326C312.861 228.997 312.896 229.707 313.14 230.357L313.06 230.417C312.616 230.811 312.267 231.302 312.04 231.851C311.813 232.4 311.714 232.994 311.75 233.587L311.67 233.647C311.217 234.126 310.875 234.7 310.67 235.327C310.366 236.176 310.395 237.108 310.75 237.937C310.226 238.413 309.874 239.05 309.75 239.747C309.596 240.716 309.829 241.708 310.4 242.507L312.34 245.117C313.49 246.715 314.94 248.073 316.61 249.117C318.475 250.256 320.444 251.217 322.49 251.987C328.01 254.067 331.34 255.557 331.34 255.557C331.34 255.557 344.22 252.107 337.81 241.677L334.73 240.427Z" fill="#FFEEDE" stroke="#34424F" stroke-width="0.75" stroke-linecap="round" stroke-linejoin="round"/>
<path d="M323.21 230.737C324.619 231.47 325.843 232.513 326.79 233.787" stroke="#34424F" stroke-width="0.75" stroke-linecap="round" stroke-linejoin="round"/>
<path d="M318.46 235.437C316.239 234.264 314.4 232.481 313.16 230.297" stroke="#34424F" stroke-width="0.75" stroke-linecap="round" stroke-linejoin="round"/>
<path d="M311.74 233.527C312.53 237.297 317.32 240.077 317.32 240.077" stroke="#34424F" stroke-width="0.75" stroke-linecap="round" stroke-linejoin="round"/>
<path d="M310.77 237.877C310.77 237.877 312.66 241.427 315.47 242.987" stroke="#34424F" stroke-width="0.75" stroke-linecap="round" stroke-linejoin="round"/>
<path d="M375.98 243.667C373.384 242.356 370.518 241.671 367.61 241.667C353.66 241.137 348.93 245.297 337.85 241.667C337.17 250.347 327.96 255.887 327.96 255.887L367.77 270.457C373.31 271.877 379.184 271.096 384.16 268.277" fill="#CDD9E6"/>
<path d="M375.98 243.667C373.384 242.356 370.518 241.671 367.61 241.667C353.66 241.137 348.93 245.297 337.85 241.667C337.17 250.347 327.96 255.887 327.96 255.887L367.77 270.457C373.31 271.877 379.184 271.096 384.16 268.277" stroke="#34424F" stroke-width="0.75" stroke-linecap="round" stroke-linejoin="round"/>
<path d="M317.65 156.577C317.65 156.577 317.86 161.157 314.75 163.097C313.47 163.897 311.03 164.097 309.1 164.477" stroke="#34424F" stroke-width="0.75" stroke-linecap="round" stroke-linejoin="round"/>
<path d="M308.83 129.947C309.918 129.427 311.112 129.166 312.318 129.185C313.524 129.204 314.709 129.502 315.78 130.057" stroke="#34424F" stroke-width="0.75" stroke-linecap="round" stroke-linejoin="round"/>
<path d="M321.46 130.337C322.919 129.481 324.613 129.11 326.296 129.277C327.98 129.444 329.567 130.141 330.83 131.267" stroke="#34424F" stroke-width="0.75" stroke-linecap="round" stroke-linejoin="round"/>
<path d="M314.59 145.947C317.776 147.163 321.227 147.508 324.59 146.947" stroke="#34424F" stroke-width="0.75" stroke-linecap="round" stroke-linejoin="round"/>
<path d="M316.65 148.847C318.357 149.499 320.207 149.685 322.01 149.387" stroke="#34424F" stroke-width="0.75" stroke-linecap="round" stroke-linejoin="round"/>
<path d="M312.34 135.177C312.959 135.177 313.46 134.447 313.46 133.547C313.46 132.647 312.959 131.917 312.34 131.917C311.722 131.917 311.22 132.647 311.22 133.547C311.22 134.447 311.722 135.177 312.34 135.177Z" fill="#34424F"/>
<path d="M325.82 136.197C326.439 136.197 326.94 135.467 326.94 134.567C326.94 133.667 326.439 132.937 325.82 132.937C325.202 132.937 324.7 133.667 324.7 134.567C324.7 135.467 325.202 136.197 325.82 136.197Z" fill="#34424F"/>
<path d="M317.27 131.947C317.738 133.894 317.786 135.919 317.41 137.887C317.18 138.797 315.57 139.987 316.41 141.037C317.25 142.087 319.81 142.187 320.94 141.837" stroke="#34424F" stroke-width="0.75" stroke-linecap="round" stroke-linejoin="round"/>
<path d="M349.85 127.457C349.85 127.457 351.54 138.097 342.85 143.937C341.96 148.481 342.426 153.186 344.19 157.467C344.529 158.277 344.987 159.032 345.55 159.707C345.92 160.15 346.368 160.522 346.87 160.807C348.324 161.558 349.925 161.981 351.56 162.047" stroke="#34424F" stroke-width="0.75" stroke-linecap="round" stroke-linejoin="round"/>
<path d="M340.01 141.997C341.784 141.256 343.33 140.059 344.49 138.527C345.65 136.985 346.163 135.051 345.92 133.137C345.832 132.455 345.571 131.808 345.16 131.257C344.72 130.768 344.146 130.42 343.509 130.256C342.872 130.093 342.201 130.121 341.58 130.337C340.962 130.567 340.396 130.92 339.917 131.373C339.437 131.827 339.054 132.372 338.79 132.977" fill="#FFEEDE"/>
<path d="M340.01 141.997C341.784 141.256 343.33 140.059 344.49 138.527C345.65 136.985 346.163 135.051 345.92 133.137C345.832 132.455 345.571 131.808 345.16 131.257C344.72 130.768 344.146 130.42 343.509 130.256C342.872 130.093 342.201 130.121 341.58 130.337C340.962 130.567 340.396 130.92 339.917 131.373C339.437 131.827 339.054 132.372 338.79 132.977" stroke="#34424F" stroke-width="0.75" stroke-linecap="round" stroke-linejoin="round"/>
<path d="M339.81 139.487C340.235 138.654 340.945 138.001 341.81 137.647" stroke="#34424F" stroke-width="0.75" stroke-linecap="round" stroke-linejoin="round"/>
<path d="M314.37 163.307C317.05 165.499 320.323 166.839 323.77 167.157C330.77 168.077 342.2 165.297 346.36 160.487" stroke="#34424F" stroke-width="0.75" stroke-linecap="round" stroke-linejoin="round"/>
<path d="M343.32 242.887C343.32 242.887 342.55 253.887 334.2 258.107" stroke="#34424F" stroke-width="0.75" stroke-linecap="round" stroke-linejoin="round"/>
<path d="M236.54 209.207C240.82 210.337 245.61 208.087 248.2 204.657C249.453 203.117 250.369 201.332 250.89 199.417" stroke="#34424F" stroke-width="0.75" stroke-linecap="round" stroke-linejoin="round"/>
<path d="M327.3 253.777C327.3 253.777 326.7 255.347 327.96 255.777" stroke="#34424F" stroke-width="0.75" stroke-linecap="round" stroke-linejoin="round"/>
<path d="M328.14 102.457C312.93 102.717 309.5 112.747 308.53 116.857L297.35 119.057L296.75 119.177C296.097 119.326 295.476 119.594 294.92 119.967C294.453 120.228 294.053 120.595 293.752 121.037C293.451 121.479 293.256 121.985 293.183 122.515C293.111 123.045 293.162 123.585 293.333 124.092C293.504 124.599 293.791 125.059 294.17 125.437C295.184 126.67 296.466 127.656 297.92 128.317L307.92 127.547H308.1C307.959 125.591 308.117 123.625 308.57 121.717C311.483 123.091 314.291 124.679 316.97 126.467L336.04 125.527C342.12 128.337 351.25 127.527 351.25 127.527C351.01 113.607 343.7 102.197 328.14 102.457Z" fill="#EEB290"/>
<path d="M308.53 116.857C309.53 112.747 312.93 102.717 328.14 102.457C343.7 102.197 351.23 113.987 351.23 127.527C351.23 127.527 342.1 128.327 336.02 125.527" stroke="#34424F" stroke-width="0.75" stroke-linecap="round" stroke-linejoin="round"/>
<path d="M296.7 119.187L308.53 116.857C333.43 114.167 336.02 125.517 336.02 125.517L316.95 126.457C316.95 126.457 301.21 115.627 294.95 119.967C294.483 120.228 294.084 120.595 293.782 121.037C293.481 121.479 293.286 121.985 293.214 122.515C293.141 123.045 293.192 123.585 293.363 124.092C293.535 124.599 293.821 125.059 294.2 125.437C295.214 126.67 296.497 127.656 297.95 128.317L308.2 127.517" stroke="#34424F" stroke-width="0.75" stroke-linecap="round" stroke-linejoin="round"/>
<path d="M336.18 148.947C332.92 153.887 329.13 156.757 323.76 157.447C322.26 157.637 317.93 156.967 316.62 156.007C313.19 153.487 310.87 147.247 309.73 143.307C308.28 138.307 310.11 134.547 308.47 129.477C308.043 127.342 308.067 125.142 308.54 123.017L308.76 121.777" stroke="#34424F" stroke-width="0.75" stroke-linecap="round" stroke-linejoin="round"/>
<path d="M234.65 200.947C234.429 201.323 234.302 201.746 234.281 202.182C234.261 202.617 234.346 203.052 234.53 203.447" stroke="#34424F" stroke-width="0.75" stroke-linecap="round" stroke-linejoin="round"/>
<path d="M245.86 192.257C246.219 192.128 246.612 192.138 246.963 192.284C247.314 192.431 247.599 192.702 247.76 193.047" stroke="#34424F" stroke-width="0.75" stroke-linecap="round" stroke-linejoin="round"/>
<path d="M338.74 168.137C340.483 167.472 342.174 166.68 343.8 165.767" stroke="#34424F" stroke-width="0.75" stroke-linecap="round" stroke-linejoin="round"/>
<path d="M319.62 169.367C319.62 169.367 326.04 171.577 334.93 169.367" stroke="#34424F" stroke-width="0.75" stroke-linecap="round" stroke-linejoin="round"/>
<path d="M207.86 197.437L175.66 248.947L169.77 352.947C169.671 354.649 168.925 356.249 167.685 357.42C166.445 358.591 164.805 359.245 163.1 359.247H-49.6199C-51.3259 359.247 -52.9673 358.594 -54.2076 357.423C-55.4478 356.252 -56.1928 354.65 -56.2899 352.947L-62.1799 248.947L-94.3799 197.467L-96.6299 222.767C-96.6299 222.767 -67.4699 267.637 -61.0099 359.527C-60.4999 366.827 -60.1299 374.407 -59.9299 382.307H173.4C173.6 374.407 173.97 366.827 174.49 359.527C180.94 267.637 210.11 222.767 210.11 222.767L207.86 197.437Z" fill="#6B93AA" stroke="#34424F" stroke-width="0.75" stroke-linecap="round" stroke-linejoin="round"/>
<path d="M336.29 128.427C336.378 129.315 336.645 130.176 337.075 130.957C337.504 131.739 338.088 132.426 338.79 132.977" stroke="#34424F" stroke-width="0.75" stroke-linecap="round" stroke-linejoin="round"/>
</g>
<mask id="mask3_952_13639" style="mask-type:luminance" maskUnits="userSpaceOnUse" x="295" y="211" width="18" height="15">
<path d="M312.39 211.787H295.54V225.347H312.39V211.787Z" fill="white"/>
</mask>
<g mask="url(#mask3_952_13639)">
<path d="M297.79 212.876L302.91 222.586L299.85 222.376L307.85 211.876C307.886 211.836 307.936 211.811 307.99 211.807C308.016 211.803 308.042 211.806 308.066 211.814C308.091 211.823 308.112 211.837 308.13 211.857C308.172 211.903 308.2 211.961 308.211 212.023C308.222 212.085 308.214 212.149 308.19 212.206L302.26 224.657C302.169 224.861 302.024 225.038 301.84 225.167C301.68 225.291 301.483 225.358 301.28 225.357C301.076 225.354 300.879 225.284 300.72 225.157C300.539 225.021 300.395 224.842 300.3 224.637L300.25 224.517L295.68 214.426C295.521 214.065 295.472 213.665 295.54 213.277C295.607 212.916 295.794 212.588 296.07 212.346C296.193 212.243 296.339 212.171 296.496 212.137C296.652 212.102 296.815 212.105 296.97 212.146C297.131 212.2 297.279 212.285 297.406 212.396C297.533 212.508 297.637 212.644 297.71 212.797L297.79 212.876Z" fill="white"/>
<path opacity="0.2" d="M304.1 216.817L301.86 219.747L303.16 222.827L305.11 218.737L304.1 216.817Z" fill="black"/>
<path d="M302.61 212.877L307.73 222.587L304.62 222.467L312.01 211.887C312.023 211.863 312.042 211.844 312.065 211.83C312.088 211.816 312.114 211.808 312.14 211.807C312.188 211.787 312.242 211.787 312.29 211.807C312.332 211.851 312.36 211.906 312.37 211.967C312.39 212.028 312.39 212.095 312.37 212.157L307.15 224.557C307.06 224.771 306.92 224.96 306.74 225.107C306.577 225.234 306.377 225.307 306.17 225.317C305.96 225.324 305.755 225.257 305.59 225.127C305.401 224.993 305.252 224.809 305.16 224.597L305.11 224.477L300.53 214.387C300.375 214.028 300.333 213.63 300.41 213.247C300.469 212.886 300.657 212.558 300.94 212.327C301.061 212.227 301.203 212.156 301.356 212.122C301.509 212.087 301.668 212.089 301.82 212.127C301.981 212.177 302.13 212.258 302.258 212.366C302.387 212.475 302.493 212.607 302.57 212.757L302.61 212.877Z" fill="white"/>
</g>
</svg>
