<svg width="447" height="406" viewBox="0 0 447 406" fill="none" xmlns="http://www.w3.org/2000/svg">
<mask id="mask0_952_13915" style="mask-type:luminance" maskUnits="userSpaceOnUse" x="0" y="0" width="447" height="406">
<path d="M97.5602 40.25L37.6602 102.14C-20.6598 162.33 -8.60977 261.01 62.4902 305.44L191.22 385.89C205.962 395.103 222.382 401.307 239.533 404.144C256.684 406.982 274.228 406.397 291.151 402.423C308.075 398.449 324.045 391.165 338.141 380.99C352.237 370.815 364.179 357.951 373.28 343.14L427.39 255.14C469.2 187.14 441.39 97.84 368.31 65.62L245.31 11.39C220.683 0.531963 193.322 -2.52271 166.907 2.63693C140.492 7.79657 116.291 20.9229 97.5602 40.25Z" fill="white"/>
</mask>
<g mask="url(#mask0_952_13915)">
<path d="M484.83 -37H-12V427.47H484.83V-37Z" fill="#EEF3FC"/>
<path d="M269.74 258.51V31.5298" stroke="#34424F" stroke-width="0.75" stroke-linecap="round" stroke-linejoin="round"/>
<path d="M163.38 31.5298H376.09C376.827 31.5298 377.534 31.8227 378.056 32.344C378.577 32.8654 378.87 33.5725 378.87 34.3098V258.51H160.6V34.3098C160.6 33.5725 160.893 32.8654 161.414 32.344C161.936 31.8227 162.643 31.5298 163.38 31.5298Z" fill="#79A8C6" stroke="#34424F" stroke-width="0.75" stroke-linecap="round" stroke-linejoin="round"/>
<path d="M474.8 37.2202H386.06C385.298 37.2202 384.68 37.8381 384.68 38.6002V251.43C384.68 252.192 385.298 252.81 386.06 252.81H474.8C475.562 252.81 476.18 252.192 476.18 251.43V38.6002C476.18 37.8381 475.562 37.2202 474.8 37.2202Z" fill="#79A8C6" stroke="#34424F" stroke-width="0.75" stroke-linecap="round" stroke-linejoin="round"/>
<path d="M269.74 37.2202H371.8C372.166 37.2202 372.517 37.3656 372.776 37.6244C373.035 37.8832 373.18 38.2342 373.18 38.6002V251.43C373.18 251.796 373.035 252.147 372.776 252.406C372.517 252.665 372.166 252.81 371.8 252.81H269.74V37.2202Z" fill="#CDD9E6" stroke="#34424F" stroke-width="0.75" stroke-linecap="round" stroke-linejoin="round"/>
<path d="M160.6 258.51H378.87V268.17C378.87 268.907 378.577 269.614 378.056 270.136C377.534 270.657 376.827 270.95 376.09 270.95H163.38C162.643 270.95 161.936 270.657 161.414 270.136C160.893 269.614 160.6 268.907 160.6 268.17V258.51Z" fill="#79A8C6" stroke="#34424F" stroke-width="0.75" stroke-linecap="round" stroke-linejoin="round"/>
<path d="M166.29 270.95H373.18V300.22C373.18 300.585 373.108 300.947 372.968 301.284C372.829 301.621 372.624 301.928 372.366 302.186C372.108 302.444 371.801 302.649 371.464 302.788C371.127 302.928 370.765 303 370.4 303H169.07C168.333 303 167.626 302.707 167.104 302.186C166.583 301.664 166.29 300.957 166.29 300.22V270.95Z" fill="#6B93AA" stroke="#34424F" stroke-width="0.75" stroke-linecap="round" stroke-linejoin="round"/>
<path d="M288.07 281.34H251.41C250.261 281.34 249.33 282.271 249.33 283.42V290.51C249.33 291.659 250.261 292.59 251.41 292.59H288.07C289.219 292.59 290.15 291.659 290.15 290.51V283.42C290.15 282.271 289.219 281.34 288.07 281.34Z" fill="#CDD9E6" stroke="#34424F" stroke-width="0.75" stroke-linecap="round" stroke-linejoin="round"/>
<path d="M197.76 294.45C201.891 294.45 205.24 291.101 205.24 286.97C205.24 282.839 201.891 279.49 197.76 279.49C193.629 279.49 190.28 282.839 190.28 286.97C190.28 291.101 193.629 294.45 197.76 294.45Z" fill="#EEB290" stroke="#34424F" stroke-width="0.75" stroke-linecap="round" stroke-linejoin="round"/>
<path d="M205.24 328.38V302.99H170.86V328.38C170.866 330.984 171.482 333.55 172.658 335.873C173.833 338.196 175.536 340.212 177.63 341.76H198.47C200.564 340.212 202.267 338.196 203.442 335.873C204.618 333.55 205.233 330.984 205.24 328.38Z" fill="#AEBCC4" stroke="#34424F" stroke-width="0.75" stroke-linecap="round" stroke-linejoin="round"/>
<path d="M341.71 294.45C345.841 294.45 349.19 291.101 349.19 286.97C349.19 282.839 345.841 279.49 341.71 279.49C337.579 279.49 334.23 282.839 334.23 286.97C334.23 291.101 337.579 294.45 341.71 294.45Z" fill="#EEB290" stroke="#34424F" stroke-width="0.75" stroke-linecap="round" stroke-linejoin="round"/>
<path d="M334.24 328.38V302.99H368.62V328.38C368.614 330.984 367.998 333.55 366.823 335.873C365.647 338.196 363.944 340.212 361.85 341.76H341.01C338.916 340.212 337.214 338.196 336.038 335.873C334.862 333.55 334.247 330.984 334.24 328.38Z" fill="#AEBCC4" stroke="#34424F" stroke-width="0.75" stroke-linecap="round" stroke-linejoin="round"/>
<path d="M384.64 54.5801H378.87V68.7501H384.64V54.5801Z" fill="#CDD9E6" stroke="#34424F" stroke-width="0.75" stroke-linecap="round" stroke-linejoin="round"/>
<path d="M171.72 54.5801H160.4C159.251 54.5801 158.32 55.5113 158.32 56.6601V66.6701C158.32 67.8188 159.251 68.7501 160.4 68.7501H171.72C172.869 68.7501 173.8 67.8188 173.8 66.6701V56.6601C173.8 55.5113 172.869 54.5801 171.72 54.5801Z" fill="#CDD9E6" stroke="#34424F" stroke-width="0.75" stroke-linecap="round" stroke-linejoin="round"/>
<path d="M384.64 221.29H378.87V235.46H384.64V221.29Z" fill="#CDD9E6" stroke="#34424F" stroke-width="0.75" stroke-linecap="round" stroke-linejoin="round"/>
<path d="M171.72 221.29H160.4C159.251 221.29 158.32 222.221 158.32 223.37V233.38C158.32 234.529 159.251 235.46 160.4 235.46H171.72C172.869 235.46 173.8 234.529 173.8 233.38V223.37C173.8 222.221 172.869 221.29 171.72 221.29Z" fill="#CDD9E6" stroke="#34424F" stroke-width="0.75" stroke-linecap="round" stroke-linejoin="round"/>
<path d="M200.68 31.5298H195.32V258.5H200.68V31.5298Z" fill="#CDD9E6" stroke="#34424F" stroke-width="0.75" stroke-linecap="round" stroke-linejoin="round"/>
<path d="M201.38 54.5801H194.61C193.461 54.5801 192.53 55.5113 192.53 56.6601V66.6701C192.53 67.8188 193.461 68.7501 194.61 68.7501H201.38C202.529 68.7501 203.46 67.8188 203.46 66.6701V56.6601C203.46 55.5113 202.529 54.5801 201.38 54.5801Z" fill="#CDD9E6" stroke="#34424F" stroke-width="0.75" stroke-linecap="round" stroke-linejoin="round"/>
<path d="M201.38 221.29H194.61C193.461 221.29 192.53 222.221 192.53 223.37V233.38C192.53 234.529 193.461 235.46 194.61 235.46H201.38C202.529 235.46 203.46 234.529 203.46 233.38V223.37C203.46 222.221 202.529 221.29 201.38 221.29Z" fill="#CDD9E6" stroke="#34424F" stroke-width="0.75" stroke-linecap="round" stroke-linejoin="round"/>
<path d="M201.38 99.8799H194.61C193.461 99.8799 192.53 100.811 192.53 101.96V111.97C192.53 113.119 193.461 114.05 194.61 114.05H201.38C202.529 114.05 203.46 113.119 203.46 111.97V101.96C203.46 100.811 202.529 99.8799 201.38 99.8799Z" fill="#CDD9E6" stroke="#34424F" stroke-width="0.75" stroke-linecap="round" stroke-linejoin="round"/>
<path d="M242.29 31.5298H236.93V258.5H242.29V31.5298Z" fill="#CDD9E6" stroke="#34424F" stroke-width="0.75" stroke-linecap="round" stroke-linejoin="round"/>
<path d="M242.99 54.5801H236.22C235.071 54.5801 234.14 55.5113 234.14 56.6601V66.6701C234.14 67.8188 235.071 68.7501 236.22 68.7501H242.99C244.139 68.7501 245.07 67.8188 245.07 66.6701V56.6601C245.07 55.5113 244.139 54.5801 242.99 54.5801Z" fill="#CDD9E6" stroke="#34424F" stroke-width="0.75" stroke-linecap="round" stroke-linejoin="round"/>
<path d="M242.99 221.29H236.22C235.071 221.29 234.14 222.221 234.14 223.37V233.38C234.14 234.529 235.071 235.46 236.22 235.46H242.99C244.139 235.46 245.07 234.529 245.07 233.38V223.37C245.07 222.221 244.139 221.29 242.99 221.29Z" fill="#CDD9E6" stroke="#34424F" stroke-width="0.75" stroke-linecap="round" stroke-linejoin="round"/>
<path d="M242.99 99.8799H236.22C235.071 99.8799 234.14 100.811 234.14 101.96V111.97C234.14 113.119 235.071 114.05 236.22 114.05H242.99C244.139 114.05 245.07 113.119 245.07 111.97V101.96C245.07 100.811 244.139 99.8799 242.99 99.8799Z" fill="#CDD9E6" stroke="#34424F" stroke-width="0.75" stroke-linecap="round" stroke-linejoin="round"/>
<path d="M357 179.89H269.74V252.81H357V179.89Z" fill="#F9DEC2" stroke="#34424F" stroke-width="0.75" stroke-linecap="round" stroke-linejoin="round"/>
<path d="M305.78 179.89H321V201.4C321 201.952 320.781 202.481 320.391 202.871C320 203.261 319.471 203.48 318.92 203.48H307.92C307.368 203.48 306.839 203.261 306.449 202.871C306.059 202.481 305.84 201.952 305.84 201.4V179.89H305.78Z" fill="#B8A191" stroke="#34424F" stroke-width="0.75" stroke-linecap="round" stroke-linejoin="round"/>
<path d="M357 106.97H269.74V179.89H357V106.97Z" fill="#F9DEC2" stroke="#34424F" stroke-width="0.75" stroke-linecap="round" stroke-linejoin="round"/>
<path d="M305.78 107H321V128.51C321 129.062 320.781 129.591 320.391 129.981C320 130.371 319.471 130.59 318.92 130.59H307.92C307.368 130.59 306.839 130.371 306.449 129.981C306.059 129.591 305.84 129.062 305.84 128.51V107H305.78Z" fill="#B8A191" stroke="#34424F" stroke-width="0.75" stroke-linecap="round" stroke-linejoin="round"/>
<path d="M269.74 31.5298V258.51" stroke="#34424F" stroke-width="0.75" stroke-linecap="round" stroke-linejoin="round"/>
<path d="M333.87 341.76H368.99" stroke="#34424F" stroke-width="0.75" stroke-linecap="round" stroke-linejoin="round"/>
<path d="M327.94 341.76H331.37" stroke="#34424F" stroke-width="0.75" stroke-linecap="round" stroke-linejoin="round"/>
<path d="M371.49 341.76H374.92" stroke="#34424F" stroke-width="0.75" stroke-linecap="round" stroke-linejoin="round"/>
<path d="M476.18 68.75H384.67" stroke="#34424F" stroke-width="0.75" stroke-linecap="round" stroke-linejoin="round"/>
<path d="M476.18 99.2598H384.67" stroke="#34424F" stroke-width="0.75" stroke-linecap="round" stroke-linejoin="round"/>
<path d="M476.18 129.76H384.67" stroke="#34424F" stroke-width="0.75" stroke-linecap="round" stroke-linejoin="round"/>
<path d="M476.18 160.27H384.67" stroke="#34424F" stroke-width="0.75" stroke-linecap="round" stroke-linejoin="round"/>
<path d="M476.18 190.78H384.67" stroke="#34424F" stroke-width="0.75" stroke-linecap="round" stroke-linejoin="round"/>
<path d="M476.18 221.29H384.67" stroke="#34424F" stroke-width="0.75" stroke-linecap="round" stroke-linejoin="round"/>
<path d="M170.49 341.76H205.61" stroke="#34424F" stroke-width="0.75" stroke-linecap="round" stroke-linejoin="round"/>
<path d="M164.56 341.76H167.99" stroke="#34424F" stroke-width="0.75" stroke-linecap="round" stroke-linejoin="round"/>
<path d="M208.1 341.76H211.54" stroke="#34424F" stroke-width="0.75" stroke-linecap="round" stroke-linejoin="round"/>
<path d="M86.4301 130.41C86.4301 130.41 87.8501 137.47 82.9001 141.41C82.0601 142.08 81.2001 142.72 80.3301 143.33C80.3301 143.33 95.4901 161.63 109.14 157.33C114.79 155.54 115.23 150.73 115.23 150.73C114.565 150.507 113.919 150.229 113.3 149.9C112.08 149.24 111.9 146.45 111.9 146.45V146.31C111.305 146.488 110.691 146.593 110.07 146.62C106.211 146.82 102.381 145.862 99.0701 143.87C96.0701 142.02 92.9901 139.31 92.0701 135.75L89.7001 126.93C88.3573 127.824 87.2383 129.014 86.4301 130.41Z" fill="#FFEEDE"/>
<path d="M123.14 99.9202C121.661 99.0258 120.251 98.023 118.92 96.9202C115.416 93.7127 111.347 91.1832 106.92 89.4602C101.01 87.3402 93.92 88.6702 88.56 91.6602C80.67 96.0702 76.97 104.32 77.31 112.98C77.4989 116.373 78.4092 119.686 79.9802 122.698C81.5511 125.711 83.7466 128.354 86.42 130.45C87.2129 129.062 88.3147 127.875 89.64 126.98C88.35 126.53 84.8 123.98 84.11 120.74C83.42 117.5 84.67 113.97 87.82 113.65C90.97 113.33 91.82 117.78 91.82 117.78C92.3606 114.848 93.7053 112.123 95.7042 109.911C97.7031 107.698 100.277 106.085 103.14 105.25C106.69 104.35 110.43 104.87 114.14 105.11C115.935 105.237 117.739 105.088 119.49 104.67C121.642 104.202 123.593 103.073 125.07 101.44C124.46 100.95 123.78 100.42 123.14 99.9202Z" fill="#B8A191"/>
<path d="M213.35 166.14C213.63 167.14 214.67 167.53 215.88 167.54L201.88 169.19C201.88 169.19 203.16 169.1 205 168.94C205 168.94 198.5 177.38 188.34 190.74C178.18 204.1 172.56 216.37 163.5 215.24C156.5 214.37 146.66 206.24 142.5 202.57C142.5 202.57 145.09 187.72 156.91 181.15L157.01 181.08C157.55 181.84 158.09 182.6 158.62 183.37C159.953 185.31 161.257 187.277 162.53 189.27L190.2 164.42L202.1 159.84C202.27 159.64 202.44 159.44 202.59 159.24C202.661 159.296 202.738 159.343 202.82 159.38L213.72 164.62C213.535 164.822 213.404 165.067 213.339 165.333C213.275 165.598 213.278 165.876 213.35 166.14Z" fill="#FFEEDE"/>
<path d="M134.92 242.76C135.15 242.69 135.38 242.62 135.59 242.54L136.8 242.14C137.369 241.909 137.997 241.87 138.59 242.03C138.875 242.137 139.119 242.33 139.287 242.583C139.456 242.837 139.541 243.136 139.53 243.44C139.537 243.706 139.464 243.967 139.32 244.19C138.458 244.926 137.454 245.478 136.37 245.81V245.97C136.497 246.267 136.563 246.587 136.563 246.91C136.563 247.233 136.497 247.553 136.37 247.85C135.852 248.841 134.964 249.588 133.9 249.93C132.735 250.4 131.53 250.765 130.3 251.02L130.56 252.14C129.63 254.63 122.21 255.51 120.39 255.66C115.809 256.135 111.182 255.906 106.67 254.98L103.95 254.4C101.677 253.919 99.37 253.612 97.0501 253.48C87.3595 253.104 77.6547 253.589 68.0501 254.93C67.3501 255.02 66.6601 255.09 65.9801 255.15C48.9801 256.66 39.2301 249.15 36.5901 246.2C36.0049 245.551 35.6225 244.744 35.4901 243.88C33.4201 230.23 41.3401 198.02 41.3401 198.02C41.3401 198.02 58.7401 196.02 71.6901 208.11C69.4801 214.11 66.9101 221.11 64.1501 228.96L103.7 240.21C103.7 240.21 110.55 235.59 114 234.21C114.5 234.01 119.89 233.14 122.87 232.67C123.121 232.634 123.378 232.667 123.612 232.767C123.846 232.866 124.048 233.028 124.196 233.234C124.345 233.44 124.434 233.683 124.454 233.936C124.474 234.189 124.424 234.443 124.31 234.67C123.827 235.46 123.135 236.1 122.31 236.52C120.615 237.407 118.794 238.028 116.91 238.36C116.91 238.36 118.91 239.85 125.35 240.14C131.63 240.42 135.93 239 136.82 239.14C138.04 239.37 137.75 240.8 137.06 241.46C136.632 241.868 136.12 242.179 135.56 242.37L134.92 242.76Z" fill="#FFEEDE"/>
<path d="M118.38 151.7C120.38 152.26 122.47 152.64 124.51 153.16C128.486 154.262 132.229 156.075 135.56 158.51C137.873 160.152 140.075 161.946 142.15 163.88C144.895 166.423 147.487 169.128 149.91 171.98C152.41 174.9 154.77 177.98 157.02 181.08L156.92 181.15C145.12 187.72 142.56 202.57 142.56 202.57C141.43 201.57 140.73 200.9 140.64 200.81C141.64 213.41 142.29 228.93 142.45 243.4H139.56C139.571 243.096 139.486 242.796 139.317 242.543C139.149 242.29 138.905 242.097 138.62 241.99C138.027 241.83 137.399 241.869 136.83 242.1L135.62 242.5C136.18 242.309 136.692 241.998 137.12 241.59C137.81 240.93 138.12 239.5 136.88 239.27C135.99 239.1 131.69 240.52 125.41 240.27C118.92 239.98 116.97 238.49 116.97 238.49C118.854 238.158 120.675 237.537 122.37 236.65C123.2 236.228 123.893 235.58 124.37 234.78C124.491 234.554 124.547 234.3 124.53 234.044C124.514 233.789 124.426 233.543 124.278 233.335C124.129 233.127 123.925 232.964 123.688 232.866C123.452 232.768 123.193 232.738 122.94 232.78C119.94 233.25 114.55 234.12 114.05 234.32C110.6 235.66 103.75 240.32 103.75 240.32L64.1301 229.03C66.9001 221.14 69.4701 214.14 71.6801 208.14C58.6801 196.08 41.3301 198.05 41.3301 198.05C43.2801 187.42 45.9301 176.54 50.9801 166.9C53.8995 161.15 58.4126 156.363 63.9801 153.11C69.3901 149.82 75.1301 147.03 80.3201 143.38C80.3201 143.38 95.4801 161.68 109.13 157.38C114.78 155.59 115.22 150.78 115.22 150.78C116.29 151.14 117.36 151.42 118.38 151.7Z" fill="#CDD9E6"/>
<path d="M139.5 262.14C139.5 262.14 141.78 319.54 130.39 369.3L66.39 374.48C66.39 374.48 63.5 318.42 61.75 296.38C60.99 286.67 65.55 263.38 65.55 263.38" fill="#79A8C6"/>
<path d="M66.4398 374.51C66.4398 374.51 63.5498 318.45 61.7998 296.41C61.4098 291.41 62.3898 282.88 63.4598 275.73" stroke="#34424F" stroke-width="0.75" stroke-linecap="round" stroke-linejoin="round"/>
<path d="M70 277.33C70 277.33 68.83 309.1 70 325.8C71.17 342.5 72.78 374.64 72.78 374.64" stroke="#34424F" stroke-width="0.75" stroke-linecap="round" stroke-linejoin="round"/>
<path d="M70 301.49C70 301.49 80.56 300.14 79.39 268.06" stroke="#34424F" stroke-width="0.75" stroke-linecap="round" stroke-linejoin="round"/>
<path d="M139.5 262.14C139.5 262.14 141.78 319.54 130.39 369.3" stroke="#34424F" stroke-width="0.75" stroke-linecap="round" stroke-linejoin="round"/>
<path d="M99.0498 440.78L114.47 391.94L119.04 293.15L119.53 282.66" stroke="#34424F" stroke-width="0.75" stroke-linecap="round" stroke-linejoin="round"/>
<path d="M130.56 252.14L130.3 250.99C131.53 250.734 132.735 250.37 133.9 249.9C134.964 249.558 135.851 248.811 136.37 247.82C136.497 247.523 136.563 247.203 136.563 246.88C136.563 246.557 136.497 246.237 136.37 245.94V245.78C137.454 245.448 138.458 244.896 139.32 244.16C139.464 243.937 139.537 243.675 139.53 243.41H142.42C142.55 254.59 142.42 265.13 141.89 273.2C141.207 274.077 140.382 274.834 139.45 275.44C136.45 277.61 130.02 280.89 117.3 283.08C103.09 285.53 89.42 283.59 79.41 281.08C73.946 279.77 68.6086 277.98 63.46 275.73C63.46 275.73 64.95 266.45 65.78 257.32C65.84 256.73 65.89 256.14 65.94 255.55V255.18C66.62 255.12 67.31 255.05 68.01 254.96C77.6146 253.619 87.3194 253.133 97.01 253.51C99.3299 253.642 101.637 253.949 103.91 254.43L106.63 255.01C111.142 255.936 115.769 256.165 120.35 255.69C122.23 255.54 129.65 254.66 130.56 252.14Z" fill="#CDD9E6"/>
<path d="M120.06 132.69C119.46 136.77 118.37 140.94 115.54 144.07C114.566 145.161 113.299 145.949 111.89 146.34C111.295 146.518 110.681 146.622 110.06 146.65C106.201 146.85 102.371 145.892 99.0601 143.9C96.0601 142.05 92.9801 139.34 92.0601 135.78L89.6801 126.91C88.4101 126.49 84.8801 123.91 84.1801 120.7C83.4801 117.49 84.7401 113.93 87.8901 113.61C91.0401 113.29 91.8901 117.74 91.8901 117.74C92.4306 114.808 93.7754 112.083 95.7743 109.871C97.7731 107.658 100.348 106.044 103.21 105.21C106.76 104.31 110.5 104.83 114.21 105.07C116.005 105.196 117.81 105.048 119.56 104.63V104.82C120.371 107.951 120.81 111.166 120.87 114.4C120.87 115.65 120.93 116.9 120.87 118.14C120.941 123.003 120.67 127.865 120.06 132.69Z" fill="#FFEEDE"/>
<path d="M117.46 133.61C117.067 133.036 116.528 132.578 115.899 132.283C115.269 131.987 114.572 131.866 113.88 131.93L110.93 132.19C109.783 132.298 108.686 132.709 107.75 133.38L105.24 135.19C99.7699 133.72 94.6299 130.25 92.2399 125.64L89.6299 126.91L92.0099 135.78C93.0099 139.34 96.0099 142.05 99.0099 143.9C102.323 145.887 106.152 146.841 110.01 146.64C111.048 146.598 112.068 146.349 113.009 145.908C113.95 145.466 114.793 144.842 115.49 144.07C118.3 140.96 119.39 136.84 119.99 132.79C119.306 133.323 118.595 133.82 117.86 134.28L117.46 133.61Z" fill="#B8A191"/>
<path d="M80.3599 143.38C80.3599 143.38 95.5199 161.68 109.17 157.38C114.82 155.59 115.26 150.78 115.26 150.78" stroke="#34424F" stroke-width="0.75" stroke-linecap="round" stroke-linejoin="round"/>
<path d="M67.8999 158.14C73.4399 161.36 79.9999 168.27 79.1499 182.87C78.6699 191.06 72.1499 206.03 64.1499 228.99" stroke="#34424F" stroke-width="0.75" stroke-linecap="round" stroke-linejoin="round"/>
<path d="M111.93 146.48C111.93 146.48 112.11 149.26 113.33 149.92C114.929 150.689 116.605 151.286 118.33 151.7C120.33 152.26 122.42 152.63 124.46 153.15C128.454 154.25 132.215 156.067 135.56 158.51C137.873 160.149 140.075 161.939 142.15 163.87C144.893 166.416 147.484 169.121 149.91 171.97C153.008 175.617 155.918 179.418 158.63 183.36C159.964 185.3 161.267 187.267 162.54 189.26L190.21 164.42" stroke="#34424F" stroke-width="0.75" stroke-linecap="round" stroke-linejoin="round"/>
<path d="M65.97 255.14C65.19 264.89 63.46 275.68 63.46 275.68C63.46 275.68 89.33 287.84 117.3 283.02C137.8 279.49 141.89 273.14 141.89 273.14C143.3 250.27 141.99 207.5 139.17 186.79C137.961 178.182 135.073 169.895 130.67 162.4" stroke="#34424F" stroke-width="0.75" stroke-linecap="round" stroke-linejoin="round"/>
<path d="M140.56 200.8C140.56 200.8 154.46 214.14 163.5 215.24C172.54 216.34 178.18 204.13 188.35 190.77C198.52 177.41 205.01 168.96 205.01 168.96" stroke="#34424F" stroke-width="0.75" stroke-linecap="round" stroke-linejoin="round"/>
<path d="M142.56 202.56C142.56 202.56 145.14 187.71 156.97 181.15" stroke="#34424F" stroke-width="0.75" stroke-linecap="round" stroke-linejoin="round"/>
<path d="M41.3301 198.05C41.3301 198.05 58.7301 196.05 71.6801 208.14" stroke="#34424F" stroke-width="0.75" stroke-linecap="round" stroke-linejoin="round"/>
<path d="M113.56 119.02C113.84 121.26 114.15 123.6 115.46 125.44C115.74 125.83 116.26 126.44 116.2 126.96C116.2 127.27 115.52 128.79 112.01 128.59" stroke="#34424F" stroke-width="0.75" stroke-linecap="round" stroke-linejoin="round"/>
<path d="M100.67 115.48C100.67 115.48 104.25 113.78 110.18 114.63" stroke="#34424F" stroke-width="0.75" stroke-linecap="round" stroke-linejoin="round"/>
<path d="M114.96 114.7C114.96 114.7 116.58 113.59 120.86 114.39" stroke="#34424F" stroke-width="0.75" stroke-linecap="round" stroke-linejoin="round"/>
<path d="M91.8798 117.73C91.8798 117.73 90.9898 113.29 87.8798 113.61C84.7698 113.93 83.4598 117.45 84.1698 120.7C84.8798 123.95 88.3998 126.49 89.6698 126.91" stroke="#34424F" stroke-width="0.75" stroke-linecap="round" stroke-linejoin="round"/>
<path d="M89.6201 126.91L92.0001 135.78C93.0001 139.34 96.0001 142.05 99.0001 143.9C102.313 145.886 106.143 146.84 110 146.64C111.039 146.598 112.058 146.349 112.999 145.908C113.94 145.466 114.784 144.842 115.48 144.07C118.31 140.93 119.4 136.77 120 132.68C120.623 127.859 120.907 123.001 120.85 118.14C121.028 113.659 120.594 109.174 119.56 104.81" stroke="#34424F" stroke-width="0.75" stroke-linecap="round" stroke-linejoin="round"/>
<path d="M119.91 132.99C119.27 133.459 118.602 133.89 117.91 134.28L117.46 133.61C117.067 133.036 116.528 132.578 115.899 132.283C115.27 131.987 114.573 131.866 113.88 131.93L110.93 132.19C109.784 132.298 108.686 132.709 107.75 133.38L105.24 135.19C99.7702 133.72 94.6302 130.25 92.2402 125.64" stroke="#34424F" stroke-width="0.75" stroke-linecap="round" stroke-linejoin="round"/>
<path d="M130.65 251.38C131.17 254.47 122.41 255.53 120.4 255.68C115.819 256.165 111.191 255.935 106.68 255L103.97 254.43C101.698 253.939 99.391 253.632 97.0701 253.51C87.3795 253.128 77.6742 253.613 68.0701 254.96C49.7401 257.29 39.3601 249.34 36.6101 246.23C36.0269 245.579 35.6448 244.773 35.5101 243.91C33.4401 230.25 41.3601 198.05 41.3601 198.05C43.3101 187.42 45.9601 176.53 51.0101 166.89C53.9374 161.146 58.4486 156.361 64.0101 153.1C70.3401 149.26 77.1201 146.1 82.9301 141.45C87.8701 137.5 86.4601 130.45 86.4601 130.45C83.7781 128.35 81.5754 125.701 79.9992 122.682C78.423 119.662 77.5096 116.341 77.3201 112.94C76.9801 104.29 80.6801 96.0398 88.5701 91.6298C93.9301 88.6298 101.02 87.2998 106.93 89.4198C111.354 91.149 115.422 93.6778 118.93 96.8798C120.904 98.4927 123.023 99.9189 125.26 101.14C122.54 104.52 117.81 105.27 114.15 105.03C110.49 104.79 106.75 104.27 103.15 105.17C100.288 106.003 97.7142 107.614 95.7153 109.825C93.7164 112.036 92.3712 114.759 91.8301 117.69" stroke="#34424F" stroke-width="0.75" stroke-linecap="round" stroke-linejoin="round"/>
<path d="M103.67 240.28C103.67 240.28 110.53 235.66 113.98 234.28C114.48 234.08 119.84 233.22 122.82 232.74C123.079 232.697 123.344 232.727 123.587 232.828C123.829 232.928 124.038 233.095 124.19 233.309C124.343 233.523 124.432 233.775 124.448 234.037C124.463 234.298 124.405 234.56 124.28 234.79C123.813 235.563 123.141 236.193 122.34 236.61C120.644 237.503 118.819 238.124 116.93 238.45C116.93 238.45 118.88 239.94 125.38 240.24C131.66 240.52 135.96 239.09 136.85 239.24C138.07 239.48 137.78 240.9 137.09 241.57C136.17 242.47 134.87 242.71 133.17 243.16C129.881 243.837 126.528 244.153 123.17 244.1" stroke="#34424F" stroke-width="0.75" stroke-linecap="round" stroke-linejoin="round"/>
<path d="M103.67 240.28L60.6299 228.04" stroke="#34424F" stroke-width="0.75" stroke-linecap="round" stroke-linejoin="round"/>
<path d="M120.96 252.26C120.96 252.26 129.72 251.73 133.96 249.92C134.489 249.754 134.979 249.485 135.403 249.127C135.827 248.77 136.176 248.333 136.43 247.84C136.557 247.545 136.622 247.226 136.622 246.905C136.622 246.583 136.557 246.265 136.43 245.97" stroke="#34424F" stroke-width="0.75" stroke-linecap="round" stroke-linejoin="round"/>
<path d="M122.47 248.46C124.919 248.534 127.37 248.349 129.78 247.91C131.632 247.542 133.444 246.996 135.19 246.28C136.61 245.68 138.86 244.89 139.32 244.19C139.431 244.003 139.501 243.794 139.523 243.578C139.546 243.362 139.522 243.144 139.453 242.938C139.384 242.732 139.271 242.543 139.122 242.385C138.973 242.226 138.792 242.102 138.59 242.02C137.997 241.865 137.37 241.904 136.8 242.13L134.72 242.81" stroke="#34424F" stroke-width="0.75" stroke-linecap="round" stroke-linejoin="round"/>
<path d="M115.56 135.19C112.95 136.83 109.21 135.8 109.21 135.8" stroke="#34424F" stroke-width="0.75" stroke-linecap="round" stroke-linejoin="round"/>
<path d="M88.7002 120.84C89.2067 121.767 89.5196 122.788 89.6202 123.84" stroke="#34424F" stroke-width="0.75" stroke-linecap="round" stroke-linejoin="round"/>
<path d="M201.89 169.19C201.89 169.19 215.22 168.19 217.38 167.37Z" fill="#EEF3FC"/>
<path d="M201.89 169.19C201.89 169.19 215.22 168.19 217.38 167.37" stroke="#34424F" stroke-width="0.75" stroke-linecap="round" stroke-linejoin="round"/>
<path d="M225.56 147.14C226.36 146.8 227.79 146.76 228.18 147.73C228.57 148.7 227.54 149.52 226.83 150C225.858 150.648 224.814 151.181 223.72 151.59" fill="#FFEEDE"/>
<path d="M225.56 147.14C226.36 146.8 227.79 146.76 228.18 147.73C228.57 148.7 227.54 149.52 226.83 150C225.858 150.648 224.814 151.181 223.72 151.59" stroke="#34424F" stroke-width="0.75" stroke-linecap="round" stroke-linejoin="round"/>
<path d="M229.867 136.209L216.939 130.004C216.162 129.631 215.23 129.958 214.858 130.735L202.101 157.312C201.728 158.089 202.056 159.021 202.833 159.394L215.761 165.599C216.537 165.971 217.469 165.644 217.842 164.867L230.598 138.29C230.971 137.513 230.644 136.582 229.867 136.209Z" fill="#AEBCC4" stroke="#34424F" stroke-width="0.75" stroke-linecap="round" stroke-linejoin="round"/>
<path d="M216.364 131.662L203.772 157.897L216.358 163.938L228.95 137.703L216.364 131.662Z" fill="white"/>
<path d="M190.23 164.42L197.23 151.31L208.96 139.19C209.133 139.012 209.352 138.885 209.592 138.822C209.833 138.76 210.086 138.764 210.324 138.835C210.562 138.906 210.776 139.041 210.943 139.225C211.11 139.41 211.223 139.636 211.27 139.88C211.57 141.53 210.83 144.44 205.97 149.19C205.97 149.19 206.02 155.36 202.1 159.84" fill="#FFEEDE"/>
<path d="M190.23 164.42L197.23 151.31L208.96 139.19C209.133 139.012 209.352 138.885 209.592 138.822C209.833 138.76 210.086 138.764 210.324 138.835C210.562 138.906 210.776 139.041 210.943 139.225C211.11 139.41 211.223 139.636 211.27 139.88C211.57 141.53 210.83 144.44 205.97 149.19C205.97 149.19 206.02 155.36 202.1 159.84" stroke="#34424F" stroke-width="0.75" stroke-linecap="round" stroke-linejoin="round"/>
<path d="M215.69 163.85C215.172 163.891 214.667 164.03 214.2 164.26C213.868 164.435 213.603 164.716 213.449 165.058C213.295 165.401 213.26 165.785 213.35 166.15C213.71 167.44 215.35 167.68 216.9 167.48C217.569 167.388 218.182 167.057 218.625 166.547C219.068 166.038 219.312 165.385 219.31 164.71V163.94" fill="#FFEEDE"/>
<path d="M215.69 163.85C215.172 163.891 214.667 164.03 214.2 164.26C213.868 164.435 213.603 164.716 213.449 165.058C213.295 165.401 213.26 165.785 213.35 166.15C213.71 167.44 215.35 167.68 216.9 167.48C217.569 167.388 218.182 167.057 218.625 166.547C219.068 166.038 219.312 165.385 219.31 164.71V163.94" stroke="#34424F" stroke-width="0.75" stroke-linecap="round" stroke-linejoin="round"/>
<path d="M223.36 159.59C224.46 160.31 224.04 161.2 223.45 161.85C222.968 162.369 222.373 162.77 221.71 163.02C221.01 163.3 219.82 163.76 218.5 164.23C217.931 164.453 217.303 164.475 216.719 164.293C216.136 164.111 215.632 163.736 215.29 163.23C215.29 163.23 214.4 161.57 216.51 160.69L218.62 159.8" fill="#FFEEDE"/>
<path d="M223.36 159.59C224.46 160.31 224.04 161.2 223.45 161.85C222.968 162.369 222.373 162.77 221.71 163.02C221.01 163.3 219.82 163.76 218.5 164.23C217.931 164.453 217.303 164.475 216.719 164.293C216.136 164.111 215.632 163.736 215.29 163.23C215.29 163.23 214.4 161.57 216.51 160.69L218.62 159.8" stroke="#34424F" stroke-width="0.75" stroke-linecap="round" stroke-linejoin="round"/>
<path d="M223.16 153.79L222.41 155.37L220.34 157.2C219.742 157.684 219.254 158.291 218.91 158.98C218.831 159.193 218.805 159.422 218.833 159.647C218.862 159.873 218.945 160.088 219.074 160.275C219.204 160.461 219.377 160.614 219.578 160.719C219.779 160.824 220.003 160.88 220.23 160.88C221.81 161.01 223.46 159.36 224.32 158.25C226.87 154.95 223.16 153.79 223.16 153.79Z" fill="#FFEEDE" stroke="#34424F" stroke-width="0.75" stroke-linecap="round" stroke-linejoin="round"/>
<path d="M105.24 121.24C105.886 121.24 106.41 120.586 106.41 119.78C106.41 118.973 105.886 118.32 105.24 118.32C104.594 118.32 104.07 118.973 104.07 119.78C104.07 120.586 104.594 121.24 105.24 121.24Z" fill="#34424F"/>
<path d="M118.11 120.75C118.729 120.75 119.23 120.096 119.23 119.29C119.23 118.484 118.729 117.83 118.11 117.83C117.492 117.83 116.99 118.484 116.99 119.29C116.99 120.096 117.492 120.75 118.11 120.75Z" fill="#34424F"/>
<path d="M83.0298 150.34C87.7674 155.692 94.1605 159.304 101.19 160.6" stroke="#34424F" stroke-width="0.75" stroke-linecap="round" stroke-linejoin="round"/>
<path d="M105.45 160.86C107.169 160.906 108.879 160.588 110.466 159.926C112.054 159.265 113.483 158.274 114.66 157.02" stroke="#34424F" stroke-width="0.75" stroke-linecap="round" stroke-linejoin="round"/>
<path d="M162.56 189.26C161.524 190.158 160.549 191.123 159.64 192.15" stroke="#34424F" stroke-width="0.75" stroke-linecap="round" stroke-linejoin="round"/>
</g>
</svg>
