<svg width="447" height="407" viewBox="0 0 447 407" fill="none" xmlns="http://www.w3.org/2000/svg">
<mask id="mask0_952_13801" style="mask-type:luminance" maskUnits="userSpaceOnUse" x="0" y="0" width="447" height="407">
<path d="M97.59 40.9702L37.69 102.86C-20.63 163.05 -8.57998 261.73 62.52 306.16L191.25 386.61C205.992 395.823 222.412 402.027 239.563 404.864C256.714 407.702 274.257 407.117 291.181 403.143C308.105 399.169 324.075 391.885 338.171 381.71C352.266 371.536 364.209 358.672 373.31 343.86L427.42 255.86C469.23 187.86 441.42 98.5602 368.34 66.3402L245.34 12.1102C220.713 1.25218 193.352 -1.8025 166.937 3.35714C140.522 8.51678 116.321 21.6432 97.59 40.9702Z" fill="white"/>
</mask>
<g mask="url(#mask0_952_13801)">
<path d="M482.04 -36H-14.79V428.47H482.04V-36Z" fill="#EEF3FC"/>
<path d="M505.91 57.79H360.22V366.18H505.91V57.79Z" fill="#79A8C6" stroke="#34424F" stroke-width="0.75" stroke-linecap="round" stroke-linejoin="round"/>
<path d="M360.22 202.92V57.79" stroke="#34424F" stroke-width="0.75" stroke-linecap="round" stroke-linejoin="round"/>
<path d="M165.96 174.45L261.59 68.6398C264.677 65.2238 268.446 62.4933 272.654 60.6244C276.862 58.7555 281.415 57.7899 286.02 57.7898H505.92V35.0098H277.53C271.208 35.0117 264.958 36.3386 259.181 38.905C253.404 41.4714 248.229 45.2203 243.99 49.9098L131.45 174.45H-50.0103V420.08H360.23V174.45" fill="#79A8C6"/>
<path d="M165.96 174.45L261.59 68.6398C264.677 65.2238 268.446 62.4933 272.654 60.6244C276.862 58.7555 281.415 57.7899 286.02 57.7898H505.92V35.0098H277.53C271.208 35.0117 264.958 36.3386 259.181 38.905C253.404 41.4714 248.229 45.2203 243.99 49.9098L131.45 174.45H-50.0103V420.08H360.23V174.45" stroke="#34424F" stroke-width="0.75" stroke-linecap="round" stroke-linejoin="round"/>
<path d="M360.22 202.92H165.96V174.45H360.22" stroke="#34424F" stroke-width="0.75" stroke-linecap="round" stroke-linejoin="round"/>
<path d="M277 174.45H327.11" stroke="#34424F" stroke-width="0.75" stroke-linecap="round" stroke-linejoin="round"/>
<path d="M409.38 335.62H-70.6201V504.52H409.38V335.62Z" fill="#6B93AA" stroke="#34424F" stroke-width="0.75" stroke-linecap="round" stroke-linejoin="round"/>
<path d="M220.4 144.44C220.044 142.911 219.807 141.356 219.69 139.79C219.58 139.155 219.656 138.502 219.91 137.91C220.73 136.77 222.16 139.17 222.44 139.75C222.16 139.17 220.73 136.75 219.91 137.91C219.656 138.502 219.58 139.155 219.69 139.79C219.807 141.356 220.044 142.911 220.4 144.44C222.92 157.55 231.19 174.44 231.19 174.44H240.04C240.04 174.44 229.75 135.1 219.66 132.08C216.87 131.24 213.91 131.56 212.66 134.52C211.66 137.02 211.87 139.98 212.23 142.59C212.878 147.312 213.823 151.988 215.06 156.59C215.59 158.59 216.18 160.5 216.83 162.43C217.83 165.32 219.27 169.82 221.1 174.43H231.1C231.1 174.43 222.92 157.55 220.4 144.44Z" fill="#AEBCC4"/>
<path d="M207.79 159.19L182.41 174.45H221.14L218.77 168.08L216.27 160.64L214.06 152.61L213.51 149.88L207.79 159.19Z" fill="#AEBCC4"/>
<path d="M240.04 174.45C240.04 174.45 234.83 154.55 228.2 141.97" stroke="#34424F" stroke-width="0.75" stroke-linecap="round" stroke-linejoin="round"/>
<path d="M223.78 143.29C223.78 143.29 230.7 159.54 233.03 168.08" stroke="#34424F" stroke-width="0.75" stroke-linecap="round" stroke-linejoin="round"/>
<path d="M213.51 149.86L207.79 159.18C207.79 159.18 182.79 174.32 182.42 174.44" stroke="#34424F" stroke-width="0.75" stroke-linecap="round" stroke-linejoin="round"/>
<path d="M331.03 93.4999L328.67 102.3C327.77 105.65 324.14 108.24 320.67 110.3C317.677 112.106 314.245 113.054 310.75 113.04H310.29V113.49C310.258 114.271 310.012 115.028 309.58 115.68C308.82 116.375 307.909 116.885 306.92 117.17L306.42 117.36L306.65 117.85C308.65 122.02 312.25 124.12 317.43 124.12C318.646 124.114 319.86 124.011 321.06 123.81C327.55 122.81 333.06 118.81 338.48 111.21L338.71 110.89L338.46 110.59C336.976 108.901 335.82 106.951 335.05 104.84C334.2 101.958 333.961 98.9296 334.35 95.9499C334.07 95.4299 332.8 93.2499 331.03 93.4999Z" fill="#FFEEDE"/>
<path d="M335.88 81.71C335.546 81.2357 335.113 80.8397 334.61 80.5496C334.108 80.2595 333.548 80.0822 332.97 80.03C330.42 79.78 329.31 82.49 328.97 83.7C327.78 77.09 324.83 73.14 320.19 71.97C317 71.17 313.71 71.58 310.52 71.97C308.039 72.3791 305.52 72.5099 303.01 72.36C302.189 72.2706 301.379 72.1032 300.59 71.86L300.08 71.69L299.95 72.22C299.317 75.0319 298.958 77.8988 298.88 80.78C298.88 80.78 298.8 83.6 298.82 84.7C298.781 89.0119 298.991 93.3225 299.45 97.61L299.68 99.4C300.21 102.95 301.21 107.4 304.2 110.71C305.64 112.281 307.641 113.223 309.77 113.33H310.84C314.364 113.335 317.822 112.378 320.84 110.56C324.32 108.43 328 105.8 328.92 102.36L331.28 93.56C332.85 93 336.14 90.34 336.81 87.27C337.04 86.3286 337.076 85.3503 336.916 84.3945C336.756 83.4387 336.404 82.5254 335.88 81.71Z" fill="#FFEEDE"/>
<path d="M327.59 92.1602C326.478 94.4909 324.876 96.5537 322.893 98.2073C320.91 99.8608 318.592 101.066 316.1 101.74L313.85 99.9602C312.918 99.2804 311.819 98.8688 310.67 98.7702L307.47 98.4702C306.777 98.4078 306.08 98.5315 305.45 98.8286C304.821 99.1257 304.282 99.5854 303.89 100.16L303.43 100.83C302.03 100.066 300.738 99.1174 299.59 98.0102C299.64 98.4202 299.68 98.8302 299.74 99.2302C300.34 103.31 301.42 107.48 304.25 110.62C304.967 111.4 305.833 112.03 306.796 112.473C307.759 112.916 308.8 113.163 309.86 113.2C313.684 113.373 317.475 112.417 320.76 110.45C323.81 108.59 327.84 105.89 328.76 102.33C328.76 102.33 331.04 93.8402 331.11 93.5602C329.972 93.0095 328.795 92.5416 327.59 92.1602Z" fill="#B8A191"/>
<path d="M282.21 150.7C280.42 149.471 278.405 148.606 276.281 148.157C274.156 147.707 271.964 147.681 269.83 148.08L269.58 148.13L269.47 148.35C268.47 150.44 267.38 153.05 266.3 155.6C264.82 159.11 263.3 162.73 262.14 164.86L240.14 137.45C239.115 136.177 238.006 134.974 236.82 133.85C234.61 131.76 230.54 128.05 228.08 126.66L227.67 126.44L227.56 126.38H227.44C223.25 126.51 214.85 127.07 212.95 128.38L212.82 128.49C212.741 128.551 212.673 128.626 212.62 128.71L212.39 129.06C211.27 130.76 209.78 133.19 209.84 134.55C209.9 135.91 210.2 136.77 210.76 137.04C210.956 137.113 211.167 137.136 211.375 137.108C211.582 137.08 211.779 137.002 211.95 136.88L212.2 136.71V136.51C212.31 135.859 212.491 135.222 212.74 134.61C213.74 132.15 216.29 131.26 219.54 132.24C222.09 133 224.91 136.24 227.92 141.9L224.92 142.26L219.59 140.78L219.71 141.54C219.81 142.24 219.94 142.93 220.08 143.61L220.23 144.39L220.31 144.57C220.669 145.062 221.101 145.497 221.59 145.86C222.578 146.601 223.652 147.219 224.79 147.7L225.79 148.11C227.508 148.772 229.264 149.33 231.05 149.78L231.99 150.01L232.91 150.22C233.84 150.438 234.685 150.925 235.34 151.62C239.81 156.42 242.4 162.62 244.15 166.79C244.64 168.188 245.281 169.529 246.06 170.79L246.27 171.04L246.58 170.95C247.67 170.64 248.7 170.38 249.64 170.17C250.952 169.846 252.291 169.638 253.64 169.55C258.64 169.32 269.64 172.38 274.11 173.71L274.62 173.86L274.74 173.34C276.611 165.788 279.213 158.437 282.51 151.39L282.73 150.91L282.21 150.7Z" fill="#FFEEDE"/>
<path d="M367.21 167.86C351.13 151.99 333.59 156.14 331.59 156.67L331.34 156.73L331.25 156.98C329.161 162.616 327.735 168.475 327 174.44C326.79 176.08 326.62 177.71 326.49 179.44L326.08 185.17C309.47 183.1 290.67 178.97 276.96 174.36L274.51 173.61C268.82 171.93 258.51 169.14 253.59 169.33C251.131 169.548 248.703 170.035 246.35 170.78H246.27C241.12 172.27 235.32 174.5 232.32 175.69C232.02 175.805 231.776 176.032 231.64 176.323C231.504 176.614 231.486 176.946 231.59 177.25C231.644 177.443 231.746 177.619 231.886 177.762C232.025 177.905 232.199 178.011 232.39 178.07L231.32 178.48C231.152 178.544 230.998 178.641 230.868 178.765C230.737 178.889 230.633 179.038 230.56 179.202C230.488 179.367 230.449 179.544 230.445 179.724C230.442 179.904 230.474 180.083 230.54 180.25C230.58 180.424 230.654 180.588 230.758 180.732C230.862 180.877 230.993 180.999 231.145 181.092C231.297 181.185 231.466 181.247 231.642 181.274C231.817 181.301 231.997 181.293 232.17 181.25C232.78 181.09 233.35 180.93 233.81 180.79C233.612 181.058 233.516 181.388 233.54 181.72C233.554 181.997 233.66 182.261 233.841 182.471C234.022 182.681 234.268 182.825 234.54 182.88C235.75 183.14 238.96 182.38 239.34 182.29C239.234 182.499 239.172 182.728 239.159 182.962C239.145 183.196 239.179 183.43 239.26 183.65C239.37 183.841 239.527 184 239.716 184.112C239.905 184.224 240.12 184.285 240.34 184.29C243.664 184.539 247.004 184.132 250.17 183.09C250.28 183.09 261.72 187.17 269.54 185.43C269.87 185.43 278.04 186.56 298.54 203.43C304.173 207.922 310.719 211.13 317.72 212.83C322.569 214.179 327.568 214.918 332.6 215.03C334.93 215.051 337.254 214.786 339.52 214.24C343.76 213.17 360.13 183.6 367.28 168.5L367.43 168.18L367.21 167.86Z" fill="#FFEEDE"/>
<path d="M362.37 125.86C359.547 124.041 356.615 122.398 353.59 120.94C348.29 118.24 342.8 115.44 338.94 111.22L338.52 110.77L338.16 111.27C332.83 118.71 327.38 122.64 321 123.64C319.842 123.826 318.672 123.923 317.5 123.93C312.36 123.93 308.77 121.85 306.84 117.75L306.65 117.34L306.22 117.49C303.81 118.36 300.67 119.21 298.59 119.77H298.49C297.76 119.97 297.14 120.13 296.71 120.26C293.447 121.106 290.336 122.455 287.49 124.26C284.914 126.067 282.59 128.209 280.58 130.63C276.68 135.23 273.75 140.37 270.58 146.13C270.36 146.53 270.12 146.99 269.86 147.54L269.43 148.42L270.43 148.25C274.533 147.616 278.724 148.578 282.14 150.94L282.41 151.11C279.035 158.232 276.388 165.676 274.51 173.33L274.41 173.79L274.85 173.92L276.94 174.56H327.31L327.37 174.13C328.109 168.253 329.525 162.481 331.59 156.93L332.22 156.78C335.37 156.05 351.85 153.16 366.87 167.85L367.38 168.34L367.67 167.7C368.87 165.15 369.67 163.27 370.16 161.96C377.59 141.51 370.04 131.02 362.37 125.86Z" fill="#CDD9E6"/>
<path d="M342.67 79.5001C342.902 74.5167 341.619 69.5801 338.99 65.3401C337.063 62.3157 334.418 59.8148 331.29 58.0601C325.35 54.7401 318.29 53.8801 312.83 55.8401C309.125 57.3027 305.67 59.3338 302.59 61.8601C299.984 64.0345 297.094 65.8444 294 67.2401L293.33 67.5501L293.87 68.0501C295.657 69.7472 297.769 71.0638 300.08 71.9201C301.011 72.2523 301.978 72.4738 302.96 72.5801C305.49 72.7391 308.029 72.6116 310.53 72.2001C313.69 71.7901 316.96 71.3801 320.11 72.2001C324.43 73.2901 327.26 76.8801 328.52 82.8501L328.85 84.3901L329.47 82.9401C329.94 81.8601 331.01 80.0701 332.96 80.2601C333.501 80.3176 334.024 80.4901 334.493 80.7661C334.962 81.042 335.367 81.415 335.68 81.8601C336.186 82.6456 336.525 83.5266 336.677 84.4487C336.828 85.3707 336.788 86.314 336.56 87.2201C335.91 90.2201 332.75 92.6701 331.29 93.2801L331.06 93.3701V93.5001C332.295 94.1228 333.375 95.0147 334.22 96.1101C338.426 92.8128 341.298 88.1074 342.31 82.8601C342.51 81.75 342.63 80.6272 342.67 79.5001Z" fill="#B8A191"/>
<path d="M315.73 221.67H295.36V221.73C295.359 223.467 295.7 225.187 296.365 226.791C297.029 228.396 298.004 229.854 299.233 231.081C300.462 232.308 301.921 233.281 303.527 233.943C305.133 234.605 306.853 234.944 308.59 234.94H322.89C324.625 234.941 326.343 234.6 327.947 233.937C329.55 233.274 331.007 232.301 332.234 231.074C333.461 229.847 334.434 228.39 335.097 226.787C335.76 225.183 336.101 223.465 336.1 221.73V221.67H315.73Z" fill="#AEBCC4" stroke="#34424F" stroke-width="0.75" stroke-linecap="round" stroke-linejoin="round"/>
<path d="M316.2 87.7901C316.846 87.7901 317.37 87.1365 317.37 86.3301C317.37 85.5238 316.846 84.8701 316.2 84.8701C315.554 84.8701 315.03 85.5238 315.03 86.3301C315.03 87.1365 315.554 87.7901 316.2 87.7901Z" fill="#34424F"/>
<path d="M307.59 85.54C307.59 87.79 307.59 90.15 306.52 92.15C306.29 92.57 305.85 93.28 305.97 93.75C306.05 94.05 306.88 95.48 310.33 94.83" stroke="#34424F" stroke-width="0.75" stroke-linecap="round" stroke-linejoin="round"/>
<path d="M321.12 82.02C321.12 82.02 317.59 80.33 311.59 81.18" stroke="#34424F" stroke-width="0.75" stroke-linecap="round" stroke-linejoin="round"/>
<path d="M306.84 81.2498C304.243 80.573 301.517 80.573 298.92 81.2498" stroke="#34424F" stroke-width="0.75" stroke-linecap="round" stroke-linejoin="round"/>
<path d="M306.27 101.73C308.89 103.38 312.63 102.35 312.63 102.35" stroke="#34424F" stroke-width="0.75" stroke-linecap="round" stroke-linejoin="round"/>
<path d="M303.33 87.2999C303.949 87.2999 304.45 86.6462 304.45 85.8399C304.45 85.0335 303.949 84.3799 303.33 84.3799C302.711 84.3799 302.21 85.0335 302.21 85.8399C302.21 86.6462 302.711 87.2999 303.33 87.2999Z" fill="#34424F"/>
<path d="M332.89 87.79C332.194 88.5739 331.706 89.5193 331.47 90.54" stroke="#34424F" stroke-width="0.75" stroke-linecap="round" stroke-linejoin="round"/>
<path d="M327.59 92.1899C326.482 94.516 324.882 96.5742 322.902 98.2229C320.922 99.8715 318.608 101.071 316.12 101.74L313.87 99.9599C312.938 99.2802 311.839 98.8686 310.69 98.7699L307.49 98.4699C306.797 98.4097 306.1 98.5343 305.471 98.8312C304.843 99.1281 304.304 99.5867 303.91 100.16L303.45 100.83C302.039 100.06 300.741 99.1014 299.59 97.9799" stroke="#34424F" stroke-width="0.75" stroke-linecap="round" stroke-linejoin="round"/>
<path d="M338.53 110.95C334.2 117.09 328.74 122.52 321.02 123.73C315.1 124.66 309.26 123.6 306.57 117.47" stroke="#34424F" stroke-width="0.75" stroke-linecap="round" stroke-linejoin="round"/>
<path d="M277 174.45C277 174.45 260.27 169.13 253.64 169.45C248.2 169.69 236.46 174.21 232.41 175.83C232.145 175.929 231.927 176.123 231.798 176.375C231.67 176.627 231.64 176.917 231.716 177.19C231.791 177.462 231.966 177.697 232.205 177.847C232.445 177.997 232.732 178.051 233.01 178H233.07" stroke="#34424F" stroke-width="0.75" stroke-linecap="round" stroke-linejoin="round"/>
<path d="M277 174.45C291.79 179.45 310.76 183.35 326.24 185.27L326.66 179.41C327.34 169.056 330.012 158.931 334.53 149.59C338.86 140.39 344.53 131.72 353.17 128.33" stroke="#34424F" stroke-width="0.75" stroke-linecap="round" stroke-linejoin="round"/>
<path d="M293.59 130.58C285.45 143.72 277.64 160.01 274.59 173.69" stroke="#34424F" stroke-width="0.75" stroke-linecap="round" stroke-linejoin="round"/>
<path d="M247.59 172.86L245.98 173.35C243.23 174.19 240.5 175.12 237.81 176.14L231.39 178.57C231.105 178.709 230.879 178.946 230.754 179.238C230.628 179.529 230.611 179.856 230.705 180.159C230.799 180.462 230.999 180.721 231.267 180.89C231.536 181.059 231.856 181.126 232.17 181.08C233.69 180.68 234.96 180.27 234.96 180.27" stroke="#34424F" stroke-width="0.75" stroke-linecap="round" stroke-linejoin="round"/>
<path d="M248.98 175.76L234.59 180.41C234.34 180.488 234.123 180.646 233.971 180.859C233.819 181.072 233.741 181.33 233.749 181.591C233.757 181.853 233.85 182.105 234.015 182.309C234.179 182.512 234.406 182.657 234.66 182.72C235.92 182.99 239.43 182.12 239.43 182.12L250.14 179.32" stroke="#34424F" stroke-width="0.75" stroke-linecap="round" stroke-linejoin="round"/>
<path d="M239.59 182.06C239.59 182.06 238.54 183.88 240.38 184.13C243.71 184.369 247.055 183.962 250.23 182.93C250.23 182.93 261.71 187.01 269.57 185.27C269.57 185.27 277.87 186.2 298.64 203.27C304.263 207.743 310.79 210.943 317.77 212.65C324.43 214.36 332.72 215.77 339.51 214.06C344.32 212.84 366.33 171.98 370 161.94C374.8 148.81 374.94 134.53 362.28 125.94C353.19 119.78 339.02 116.32 334.89 104.94C334.047 102.019 333.809 98.9563 334.19 95.9399" stroke="#34424F" stroke-width="0.75" stroke-linecap="round" stroke-linejoin="round"/>
<path d="M367.32 168.12C350.21 151.02 331.47 156.86 331.47 156.86" stroke="#34424F" stroke-width="0.75" stroke-linecap="round" stroke-linejoin="round"/>
<path d="M269.67 148.22C271.829 147.799 274.05 147.816 276.203 148.27C278.355 148.723 280.394 149.604 282.2 150.86" stroke="#34424F" stroke-width="0.75" stroke-linecap="round" stroke-linejoin="round"/>
<path d="M310.42 113.29C310.414 114.179 310.15 115.048 309.66 115.79C308.48 117.44 299.3 119.63 296.75 120.38C293.495 121.222 290.394 122.572 287.56 124.38C284.996 126.183 282.682 128.318 280.68 130.73C276.68 135.42 273.68 140.83 270.68 146.21C268.36 150.42 264.45 160.9 262.14 165.11L240.09 137.53C239.071 136.258 237.965 135.058 236.78 133.94C234.391 131.626 231.856 129.468 229.19 127.48C228.276 126.84 227.175 126.52 226.06 126.57C222.46 126.74 213.68 127.3 212.77 128.75C212.33 129.45 209.95 132.85 210.01 134.52C210.15 138.12 212.01 136.7 212.01 136.7" stroke="#34424F" stroke-width="0.75" stroke-linecap="round" stroke-linejoin="round"/>
<path d="M328.91 84.2798C328.91 84.2798 329.81 79.8398 332.96 80.1498C336.11 80.4598 337.38 83.9998 336.68 87.2498C335.98 90.4998 332.44 93.0398 331.17 93.4598" stroke="#34424F" stroke-width="0.75" stroke-linecap="round" stroke-linejoin="round"/>
<path d="M331.17 93.46L328.79 102.33C327.84 105.89 323.79 108.59 320.79 110.45C317.476 112.434 313.647 113.388 309.79 113.19C308.752 113.144 307.734 112.893 306.793 112.452C305.853 112.011 305.009 111.388 304.31 110.62C301.48 107.48 300.4 103.31 299.8 99.23C299.172 94.4063 298.888 89.544 298.95 84.68C298.809 80.4134 299.209 76.1461 300.14 71.98" stroke="#34424F" stroke-width="0.75" stroke-linecap="round" stroke-linejoin="round"/>
<path d="M334.21 95.8601C338.424 92.6834 341.298 88.0469 342.27 82.8601C343.261 76.9176 342.113 70.816 339.03 65.6401C337.101 62.5399 334.418 59.98 331.23 58.2001C325.87 55.2001 318.77 53.8701 312.87 55.9901C309.17 57.4367 305.724 59.462 302.66 61.9901C299.916 64.2835 296.863 66.1788 293.59 67.6201C296.113 70.2316 299.421 71.9455 303.01 72.5001C308.71 73.0801 314.54 70.6701 320.18 72.0901C325.35 73.4001 327.96 78.0901 328.96 84.2801" stroke="#34424F" stroke-width="0.75" stroke-linecap="round" stroke-linejoin="round"/>
<path d="M220.4 144.44C222.35 147.44 229.29 149.29 232.56 150.04C233.718 150.298 234.777 150.885 235.61 151.73C242.29 159.02 244.79 169.49 246.36 170.89" stroke="#34424F" stroke-width="0.75" stroke-linecap="round" stroke-linejoin="round"/>
<path d="M219.78 140.95L224.93 142.35L228.19 141.97" stroke="#34424F" stroke-width="0.75" stroke-linecap="round" stroke-linejoin="round"/>
<path d="M227.85 131.07L226.08 129.5C225.221 128.742 224.134 128.291 222.99 128.22L215.11 127.72L216.24 126.96C217.881 125.871 219.851 125.39 221.81 125.6L226.09 126.06C226.976 126.16 227.823 126.484 228.55 127L230.29 128.28" fill="#FFEEDE"/>
<path d="M227.85 131.07L226.08 129.5C225.221 128.742 224.134 128.291 222.99 128.22L215.11 127.72L216.24 126.96C217.881 125.871 219.851 125.39 221.81 125.6L226.09 126.06C226.976 126.16 227.823 126.484 228.55 127L230.29 128.28" stroke="#34424F" stroke-width="0.75" stroke-linecap="round" stroke-linejoin="round"/>
<path d="M222.44 139.75C222.16 139.17 220.73 136.75 219.91 137.91C219.656 138.502 219.58 139.155 219.69 139.79C219.807 141.356 220.044 142.91 220.4 144.44C222.92 157.55 231.19 174.44 231.19 174.44" stroke="#34424F" stroke-width="0.75" stroke-linecap="round" stroke-linejoin="round"/>
<path d="M221.14 174.45C219.31 169.86 217.85 165.36 216.87 162.45C216.22 160.52 215.63 158.58 215.1 156.61C213.863 152.008 212.918 147.332 212.27 142.61C211.92 140 211.68 137.04 212.7 134.54C213.91 131.54 216.87 131.26 219.7 132.1C222.53 132.94 225.54 136.87 228.24 141.98" stroke="#34424F" stroke-width="0.75" stroke-linecap="round" stroke-linejoin="round"/>
<path d="M277 174.45H327.11" stroke="#34424F" stroke-width="0.75" stroke-linecap="round" stroke-linejoin="round"/>
<path d="M165.96 174.45H235.85" stroke="#34424F" stroke-width="0.75" stroke-linecap="round" stroke-linejoin="round"/>
<path d="M165.96 202.92V335.62" stroke="#34424F" stroke-width="0.75" stroke-linecap="round" stroke-linejoin="round"/>
<path d="M308.34 124.24C310.75 125.776 313.542 126.604 316.4 126.63" stroke="#34424F" stroke-width="0.75" stroke-linecap="round" stroke-linejoin="round"/>
<path d="M320.14 126.63C326.315 125.707 331.983 122.684 336.19 118.07" stroke="#34424F" stroke-width="0.75" stroke-linecap="round" stroke-linejoin="round"/>
<path d="M122.93 163.19C122.93 162.05 124.24 158.93 124.36 157.67C124.51 156.13 124.64 154.67 124.72 153.16C94.3698 154.41 80.2698 151.16 77.0898 150.33C76.8471 154.403 77.5309 158.479 79.0898 162.25C79.5935 163.288 79.931 164.398 80.0898 165.54C80.1015 166.897 79.899 168.247 79.4898 169.54L77.7798 174.96C76.8371 177.441 75.0723 179.523 72.7798 180.86L76.3698 185.86C88.2698 192.4 104.91 187.77 104.91 187.77L106.18 184.4L106.07 184.24C109.24 185.55 112.96 185.86 115.07 184.39C117.18 182.92 117.6 179.48 118.43 177.12C119.26 174.76 120.05 171.98 122.43 171.48C122.99 171.36 124.1 171.31 124.43 170.59C124.76 169.87 124.27 169.38 124.03 168.83C123.277 167.046 122.903 165.126 122.93 163.19Z" fill="#FFEEDE"/>
<path d="M165.48 201.03C165.48 201.03 161.72 201.96 160.48 203.42C159.24 204.88 154.48 211.1 154.48 211.1L152.86 216.57L153.64 241.05L158.56 232.6C158.56 232.6 165.75 228.81 166.56 221.9L171.08 214.25L165.48 201.03Z" fill="#FFEEDE" stroke="#34424F" stroke-width="0.75" stroke-linecap="round" stroke-linejoin="round"/>
<path d="M135.59 319.66C137.056 339.891 137.253 360.194 136.18 380.45L134.49 412.25L65.3899 410.08L62.7499 339.21L62.6699 339C59.3701 330.938 57.6718 322.311 57.6699 313.6" fill="#79A8C6"/>
<path d="M135.59 319.66C137.056 339.891 137.253 360.194 136.18 380.45L134.49 412.25L65.3899 410.08L62.7499 339.21L62.6699 339C59.3701 330.938 57.6718 322.311 57.6699 313.6" stroke="#34424F" stroke-width="0.75" stroke-linecap="round" stroke-linejoin="round"/>
<path d="M217.86 185.27C217.86 185.27 215.86 182.44 215.71 182.27L214.61 183.27L176.86 180.27C176.021 180.201 175.185 180.426 174.493 180.906C173.802 181.385 173.299 182.09 173.07 182.9L159.33 231.19L157.93 232.53L159.79 235.04C160.345 235.762 161.152 236.248 162.05 236.4L199.14 242.48C200.207 242.657 201.302 242.432 202.212 241.848C203.123 241.264 203.785 240.363 204.07 239.32L218.16 187.93C218.402 187.037 218.295 186.086 217.86 185.27Z" fill="#AEBCC4" stroke="#34424F" stroke-width="0.75" stroke-linecap="round" stroke-linejoin="round"/>
<path d="M198.08 240.27L160.34 234.07C159.834 233.988 159.351 233.8 158.922 233.518C158.494 233.236 158.13 232.866 157.854 232.434C157.579 232.002 157.398 231.516 157.323 231.008C157.248 230.501 157.281 229.984 157.42 229.49L171.34 180.58C171.569 179.769 172.072 179.063 172.763 178.582C173.454 178.101 174.29 177.874 175.13 177.94L213.23 181.02C213.764 181.063 214.282 181.223 214.746 181.489C215.211 181.754 215.612 182.12 215.919 182.558C216.227 182.996 216.434 183.497 216.526 184.025C216.617 184.552 216.592 185.094 216.45 185.61L202.18 237.61C201.947 238.482 201.398 239.236 200.641 239.728C199.884 240.219 198.971 240.412 198.08 240.27Z" fill="#AEBCC4"/>
<path d="M212.51 184.02L175.17 181.02H175.08C174.836 181.02 174.599 181.101 174.406 181.249C174.213 181.397 174.073 181.605 174.01 181.84L160.37 229.77C160.325 229.921 160.314 230.079 160.336 230.234C160.359 230.39 160.415 230.538 160.5 230.67C160.584 230.805 160.697 230.92 160.83 231.008C160.963 231.096 161.112 231.155 161.27 231.18L198.27 237.25C198.542 237.292 198.821 237.233 199.053 237.084C199.285 236.935 199.455 236.706 199.53 236.44L213.53 185.44C213.575 185.281 213.583 185.113 213.553 184.95C213.524 184.788 213.458 184.634 213.36 184.5C213.264 184.361 213.138 184.245 212.99 184.162C212.843 184.078 212.679 184.03 212.51 184.02Z" fill="white"/>
<path d="M198.08 240.27L160.34 234.07C159.834 233.988 159.351 233.8 158.922 233.518C158.494 233.236 158.13 232.866 157.854 232.434C157.579 232.002 157.398 231.516 157.323 231.008C157.248 230.501 157.281 229.984 157.42 229.49L171.34 180.58C171.569 179.769 172.072 179.063 172.763 178.582C173.454 178.101 174.29 177.874 175.13 177.94L213.23 181.02C213.764 181.063 214.282 181.223 214.746 181.489C215.211 181.754 215.612 182.12 215.919 182.558C216.227 182.996 216.434 183.497 216.526 184.025C216.617 184.552 216.592 185.094 216.45 185.61L202.18 237.61C201.947 238.482 201.398 239.236 200.641 239.728C199.884 240.219 198.971 240.412 198.08 240.27Z" stroke="#34424F" stroke-width="0.75" stroke-linecap="round" stroke-linejoin="round"/>
<path d="M178.92 189.99C180.124 189.99 181.1 189.014 181.1 187.81C181.1 186.606 180.124 185.63 178.92 185.63C177.716 185.63 176.74 186.606 176.74 187.81C176.74 189.014 177.716 189.99 178.92 189.99Z" fill="#96E2CF" stroke="#34424F" stroke-width="0.75" stroke-linecap="round" stroke-linejoin="round"/>
<path d="M184.51 188.47L207.65 190.58" stroke="#34424F" stroke-width="0.75" stroke-linecap="round" stroke-linejoin="round"/>
<path d="M176.5 198.31C177.704 198.31 178.68 197.334 178.68 196.13C178.68 194.926 177.704 193.95 176.5 193.95C175.296 193.95 174.32 194.926 174.32 196.13C174.32 197.334 175.296 198.31 176.5 198.31Z" fill="#96E2CF" stroke="#34424F" stroke-width="0.75" stroke-linecap="round" stroke-linejoin="round"/>
<path d="M182.08 196.79L205.11 199.5" stroke="#34424F" stroke-width="0.75" stroke-linecap="round" stroke-linejoin="round"/>
<path d="M174.07 206.63C175.274 206.63 176.25 205.654 176.25 204.45C176.25 203.246 175.274 202.27 174.07 202.27C172.866 202.27 171.89 203.246 171.89 204.45C171.89 205.654 172.866 206.63 174.07 206.63Z" fill="#96E2CF" stroke="#34424F" stroke-width="0.75" stroke-linecap="round" stroke-linejoin="round"/>
<path d="M179.66 205.11L202.07 207.89" stroke="#34424F" stroke-width="0.75" stroke-linecap="round" stroke-linejoin="round"/>
<path d="M147.59 225.86L150.69 223.39L152.76 216.61L158.37 209.15L163.61 204.68C163.752 204.557 163.922 204.471 164.106 204.431C164.289 204.39 164.48 204.396 164.661 204.447C164.841 204.499 165.006 204.595 165.141 204.726C165.275 204.858 165.374 205.021 165.43 205.2C165.91 206.75 165.86 209.42 162.16 212.65L160.32 219.14C160.32 219.14 163.24 225.66 158.45 234.35L154.59 239.35L147.59 225.86Z" fill="#FFEEDE" stroke="#34424F" stroke-width="0.75" stroke-linecap="round" stroke-linejoin="round"/>
<path d="M157.29 237.77C157.29 237.77 154.95 231.77 147.63 225.82L126.95 240.86C128.25 249.21 130.62 252.57 135.12 260.02C143.5 252.41 152.59 243.78 157.29 237.77Z" fill="#CDD9E6" stroke="#34424F" stroke-width="0.75" stroke-linecap="round" stroke-linejoin="round"/>
<path d="M211.59 227.86C211.83 227.624 212.013 227.336 212.124 227.018C212.235 226.7 212.272 226.361 212.231 226.027C212.191 225.692 212.074 225.372 211.89 225.09C211.706 224.808 211.46 224.572 211.17 224.4L210.05 223.81L210.63 223.18C211.91 221.74 210.99 218.9 209.09 218.6L203.93 218.43L204.29 217.86L207.15 211.1C208.36 208.89 206.41 208.6 206.41 208.6C202.89 207.67 199.41 216.9 199.41 216.9L191.19 226.58C192.39 225.07 193.93 222.82 194.19 221.04C194.265 220.624 194.251 220.197 194.149 219.787C194.048 219.377 193.861 218.993 193.6 218.66C192.78 217.58 191.74 217.8 191.08 218.99C189.96 220.99 188.29 221.71 185.92 225.46C184.03 228.46 181.92 234.33 182.76 237.24L180.87 239C184.03 242.06 189.66 252.31 189.66 252.31C189.66 252.31 198.43 246.95 202.89 241.74L209.69 234.06C213.58 230.16 211.22 228.2 211.22 228.2L211.59 227.86ZM200.9 224.65L202.33 221.78C202.623 221.973 202.961 222.089 203.311 222.115C203.661 222.141 204.012 222.077 204.33 221.93C201.42 224.34 200.91 224.64 200.91 224.64L200.9 224.65Z" fill="#FFEEDE"/>
<path d="M211.25 228.19C211.25 228.19 213.54 230.19 209.72 234.05L202.92 241.73C199.46 245.73 189.69 252.3 189.69 252.3C189.69 252.3 184.06 242.05 180.9 238.99L182.75 237.08C181.91 234.16 184.46 227.67 185.95 225.45C188.43 221.77 189.95 220.99 191.11 218.98C191.77 217.79 192.81 217.57 193.63 218.65C193.89 218.983 194.077 219.367 194.179 219.777C194.281 220.187 194.295 220.614 194.22 221.03C193.79 224.03 189.8 228.25 189.8 228.25L199.44 216.86C199.44 216.86 202.9 207.63 206.44 208.56C206.44 208.56 208.39 208.85 207.18 211.06L204.3 217.86L200.91 224.65C200.91 224.65 201.77 224.42 205.76 220.65" stroke="#34424F" stroke-width="0.75" stroke-linecap="round" stroke-linejoin="round"/>
<path d="M204.1 218.43L209.1 218.59C211 218.89 211.91 221.73 210.63 223.17C208.654 225.329 206.421 227.236 203.98 228.85" stroke="#34424F" stroke-width="0.75" stroke-linecap="round" stroke-linejoin="round"/>
<path d="M210.06 223.8L211.18 224.39C211.47 224.562 211.717 224.799 211.901 225.083C212.086 225.366 212.202 225.688 212.242 226.024C212.281 226.359 212.243 226.699 212.13 227.018C212.017 227.336 211.832 227.624 211.59 227.86C209.43 229.98 206.28 233.07 205.95 233.38" stroke="#34424F" stroke-width="0.75" stroke-linecap="round" stroke-linejoin="round"/>
<path d="M202.34 221.77C202.987 221.968 203.67 222.02 204.34 221.92" stroke="#34424F" stroke-width="0.75" stroke-linecap="round" stroke-linejoin="round"/>
<path d="M137.19 314.45L137.84 323.95C137.84 323.95 115.05 331.18 90.9897 328.86C66.9297 326.54 56.6797 318.22 56.6797 318.22V308" fill="#CDD9E6"/>
<path d="M137.19 314.45L137.84 323.95C137.84 323.95 115.05 331.18 90.9897 328.86C66.9297 326.54 56.6797 318.22 56.6797 318.22V308" stroke="#34424F" stroke-width="0.75" stroke-linecap="round" stroke-linejoin="round"/>
<path d="M97.0801 153.02C88.3801 152.83 77.0801 150.41 77.0801 150.41C76.8641 153.586 77.3067 156.773 78.3801 159.77C79.0968 162.316 79.5953 164.919 79.8701 167.55C80.3601 167.71 85.9801 171.38 95.8701 170.95C96.2508 170.258 96.7679 169.651 97.3901 169.164C98.0123 168.678 98.7267 168.323 99.4901 168.12C97.0601 168.12 95.3101 165.76 94.4901 163.72C93.9039 162.257 93.8057 160.644 94.2101 159.12C94.5901 157.7 95.4401 155.95 97.0401 155.68C97.7886 155.565 98.5546 155.667 99.2463 155.976C99.938 156.285 100.526 156.786 100.94 157.42C101.353 156.748 101.901 156.169 102.55 155.72C104.424 154.514 106.541 153.739 108.75 153.45C105.3 153.35 100.53 153.09 97.0801 153.02Z" fill="#B8A191"/>
<path d="M120.479 162.049C120.649 161.205 120.234 160.409 119.552 160.271C118.87 160.134 118.179 160.707 118.009 161.552C117.839 162.396 118.254 163.192 118.936 163.33C119.618 163.467 120.309 162.894 120.479 162.049Z" fill="#34424F"/>
<path d="M115.28 157.41C116.685 156.701 118.286 156.477 119.832 156.771C121.378 157.066 122.784 157.864 123.83 159.04" stroke="#34424F" stroke-width="0.75" stroke-linecap="round" stroke-linejoin="round"/>
<path d="M113.28 174.08C113.28 174.08 114.72 175.65 118.73 175.92" stroke="#34424F" stroke-width="0.75" stroke-linecap="round" stroke-linejoin="round"/>
<path d="M99.7998 168.1C96.9698 168.36 95.1098 165.91 94.4098 163.44C93.7798 161.18 93.8098 157.19 96.2598 156.02C96.6592 155.813 97.0959 155.689 97.5442 155.653C97.9925 155.618 98.4434 155.673 98.8702 155.815C99.297 155.956 99.6912 156.182 100.029 156.478C100.368 156.775 100.643 157.136 100.84 157.54" stroke="#34424F" stroke-width="0.75" stroke-linecap="round" stroke-linejoin="round"/>
<path d="M98.25 162.72C99.1975 163.539 99.8914 164.611 100.25 165.81" stroke="#34424F" stroke-width="0.75" stroke-linecap="round" stroke-linejoin="round"/>
<path d="M77.03 151.61C77.03 155.17 78.03 158.61 79.03 162.25C79.428 163.994 79.6954 165.766 79.83 167.55C79.93 168.91 77.75 175 77.75 175C76.8073 177.481 75.0425 179.563 72.75 180.9" stroke="#34424F" stroke-width="0.75" stroke-linecap="round" stroke-linejoin="round"/>
<path d="M98.8101 174.08C99.0628 176.991 100.289 179.731 102.29 181.86C105.53 184.86 111.99 186.49 115.1 184.36C117.17 182.95 117.63 179.45 118.46 177.09C119.29 174.73 120.08 171.95 122.46 171.45C123.02 171.33 124.13 171.28 124.46 170.56C124.79 169.84 124.3 169.35 124.06 168.8C123.32 167.027 122.952 165.121 122.98 163.2C122.98 162.06 124.29 158.94 124.41 157.68C124.56 156.14 124.7 154.68 124.77 153.17" stroke="#34424F" stroke-width="0.75" stroke-linecap="round" stroke-linejoin="round"/>
<path d="M133.66 276.16L119.41 193.75C119.41 193.75 104.71 186.62 96.0997 185.6C85.2897 187.09 76.6397 185.79 72.7397 180.9C63.0697 184.19 57.6897 191.12 56.8197 192.8C43.5497 218.24 50.9497 242.6 54.2797 258.8C55.6061 265.298 56.233 271.919 56.1497 278.55L55.2197 311.55C55.2197 311.55 92.3697 330.94 139.34 315.69C139.34 315.67 136.73 301.65 133.66 276.16Z" fill="#EEB290" stroke="#34424F" stroke-width="0.75" stroke-linecap="round" stroke-linejoin="round"/>
<path d="M93.4298 293.26C80.6915 292.233 68.1128 289.75 55.9398 285.86L55.5898 297.68C61.4498 300.24 74.3498 304.8 92.4298 306.03C110.51 307.26 121.13 305.2 137.02 301.45C136.53 298.11 136.02 294.21 135.37 289.77C121.89 292.8 103.5 293.99 93.4298 293.26Z" fill="white" stroke="#34424F" stroke-width="0.75" stroke-linecap="round" stroke-linejoin="round"/>
<path d="M134.46 282.58C134.19 280.53 133.93 278.39 133.66 276.16L132.84 271.39C120.1 273.98 102.13 274.39 92.4298 273.64C77.4298 272.48 63.1098 268.64 55.5098 266.4C55.9597 270.233 56.1701 274.091 56.1398 277.95C68.1127 282.345 80.6964 284.852 93.4398 285.38C102.88 285.86 120.09 285.54 134.46 282.58Z" fill="white" stroke="#34424F" stroke-width="0.75" stroke-linecap="round" stroke-linejoin="round"/>
<path d="M110.15 257.96C95.5899 263.32 83.3799 227.86 95.3599 207.55C98.9599 201.45 104.58 194.83 111.85 193.16C117.5 191.87 121.97 194.16 125.1 198.79C127.765 202.998 130.028 207.448 131.86 212.08C134.37 217.94 136.55 223.93 139.08 229.77C143.84 240.77 153.08 253.34 153.08 253.34C157.302 250.845 161.736 248.726 166.33 247.01C171.652 245.317 176.591 242.599 180.87 239.01C186.19 241.856 190.873 245.759 194.63 250.48C191.15 254.89 167.63 281.75 152.71 287.48C142.51 291.4 133.22 284.31 127.29 279.18C117.38 270.6 113.04 262.89 106.09 251.81C103.7 248.01 101.44 244.13 99.2299 240.22C98.3099 238.58 97.3899 236.93 96.5099 235.22" fill="#CDD9E6"/>
<path d="M110.15 257.96C95.5899 263.32 83.3799 227.86 95.3599 207.55C98.9599 201.45 104.58 194.83 111.85 193.16C117.5 191.87 121.97 194.16 125.1 198.79C127.765 202.998 130.028 207.448 131.86 212.08C134.37 217.94 136.55 223.93 139.08 229.77C143.84 240.77 153.08 253.34 153.08 253.34C157.302 250.845 161.736 248.726 166.33 247.01C171.652 245.317 176.591 242.599 180.87 239.01C186.19 241.856 190.873 245.759 194.63 250.48C191.15 254.89 167.63 281.75 152.71 287.48C142.51 291.4 133.22 284.31 127.29 279.18C117.38 270.6 113.04 262.89 106.09 251.81C103.7 248.01 101.44 244.13 99.2299 240.22C98.3099 238.58 97.3899 236.93 96.5099 235.22" stroke="#34424F" stroke-width="0.75" stroke-linecap="round" stroke-linejoin="round"/>
<path d="M90.2297 420.53L85.9597 342.43C85.9597 342.43 81.9597 337.33 81.1997 333.56" stroke="#34424F" stroke-width="0.75" stroke-linecap="round" stroke-linejoin="round"/>
<path d="M153.11 253.34C153.11 253.34 155.51 256.85 156.11 257.83" stroke="#34424F" stroke-width="0.75" stroke-linecap="round" stroke-linejoin="round"/>
<path d="M177.18 241.86C177.18 241.86 183.97 245.69 190.61 255.26" stroke="#34424F" stroke-width="0.75" stroke-linecap="round" stroke-linejoin="round"/>
<path d="M143.67 228.7C147.584 232.743 150.807 237.402 153.21 242.49" stroke="#34424F" stroke-width="0.75" stroke-linecap="round" stroke-linejoin="round"/>
<path d="M106.18 184.36L104.91 187.73" stroke="#34424F" stroke-width="0.75" stroke-linecap="round" stroke-linejoin="round"/>
<path d="M89.0898 189.26C90.5398 189.2 92.0898 189.07 93.7698 188.85" stroke="#34424F" stroke-width="0.75" stroke-linecap="round" stroke-linejoin="round"/>
<path d="M73.5898 185.86C73.5898 185.86 77.0198 188.77 85.0698 189.26" stroke="#34424F" stroke-width="0.75" stroke-linecap="round" stroke-linejoin="round"/>
<path d="M124.95 153.15L140.46 152.15C140.46 152.15 137.46 145.32 128.53 143.94L124.11 143.26" fill="#EEB290"/>
<path d="M124.95 153.15L140.46 152.15C140.46 152.15 137.46 145.32 128.53 143.94L124.11 143.26" stroke="#34424F" stroke-width="0.75" stroke-linecap="round" stroke-linejoin="round"/>
<path d="M122.12 138.63C117.48 128.63 105.39 124.25 95.2498 126.48C83.5898 129.06 76.4998 140.32 75.8398 151.33C75.8398 151.33 78.7498 152.99 87.9098 153.79C94.6198 154.38 109.98 154.01 119.99 153.46C121.53 153.38 123.11 153.28 124.72 153.16C125.111 148.174 124.216 143.171 122.12 138.63Z" fill="#EEB290" stroke="#34424F" stroke-width="0.75" stroke-linecap="round" stroke-linejoin="round"/>
<path d="M326.24 185.27C326.24 185.27 330.58 185.44 333.24 188.27" stroke="#34424F" stroke-width="0.75" stroke-linecap="round" stroke-linejoin="round"/>
<path d="M262.16 165.08C262.965 166.079 263.573 167.223 263.95 168.45" stroke="#34424F" stroke-width="0.75" stroke-linecap="round" stroke-linejoin="round"/>
</g>
<path d="M221.11 238.76L232.59 231.2L232.38 230.86C227.71 222.46 227.49 211.25 235.03 200.38C235.765 199.32 236.691 198.404 237.76 197.68C265.03 178.97 294.69 208.85 275.53 236.1C274.939 236.951 274.201 237.689 273.35 238.28C260.08 247.62 246.2 245.37 237.6 237.47L221.11 238.76Z" fill="white" stroke="#34424F" stroke-width="0.75" stroke-linecap="round" stroke-linejoin="round"/>
<path d="M252.96 230.18C252.633 230.178 252.31 230.106 252.013 229.968C251.716 229.83 251.452 229.629 251.24 229.38L241.13 217.38C241.2 214.38 244.01 213.81 245.28 215.31L252.96 224.4L267.48 207.19C270.48 206.74 271.48 209.42 270.23 210.92L254.68 229.34C254.471 229.594 254.208 229.798 253.911 229.938C253.613 230.078 253.289 230.15 252.96 230.15V230.18Z" fill="#96E2CF" stroke="#34424F" stroke-width="0.75" stroke-linecap="round" stroke-linejoin="round"/>
<path d="M247.35 196.42C244.171 197.597 241.289 199.457 238.909 201.87C236.528 204.284 234.707 207.19 233.574 210.385C232.44 213.58 232.023 216.984 232.351 220.358C232.678 223.732 233.743 226.993 235.47 229.91" stroke="#34424F" stroke-width="0.75" stroke-linecap="round" stroke-linejoin="round"/>
<path d="M277.33 225.34C278.468 221.864 278.765 218.168 278.199 214.555C277.633 210.942 276.218 207.515 274.072 204.553C271.925 201.592 269.108 199.182 265.85 197.52C262.593 195.857 258.987 194.991 255.33 194.99" stroke="#34424F" stroke-width="0.75" stroke-linecap="round" stroke-linejoin="round"/>
<path d="M241.31 236.47C245.979 240.044 251.835 241.704 257.684 241.113C263.534 240.522 268.94 237.725 272.8 233.29" stroke="#34424F" stroke-width="0.75" stroke-linecap="round" stroke-linejoin="round"/>
<mask id="mask1_952_13801" style="mask-type:luminance" maskUnits="userSpaceOnUse" x="57" y="210" width="26" height="21">
<path d="M82.56 210.17H57.04V230.7H82.56V210.17Z" fill="white"/>
</mask>
<g mask="url(#mask1_952_13801)">
<path d="M60.4502 211.86L68.1902 226.55L63.5902 226.19L75.7402 210.3C75.765 210.267 75.7967 210.24 75.833 210.221C75.8692 210.202 75.9093 210.192 75.9502 210.19C75.989 210.186 76.0282 210.191 76.0647 210.205C76.1011 210.219 76.1338 210.241 76.1602 210.27C76.2311 210.334 76.2741 210.424 76.2802 210.52C76.31 210.611 76.31 210.709 76.2802 210.8L67.2802 229.65C67.137 229.96 66.9167 230.229 66.6402 230.43C66.3968 230.618 66.0978 230.72 65.7902 230.72C65.4825 230.72 65.1836 230.618 64.9402 230.43C64.666 230.225 64.4491 229.953 64.3102 229.64L64.2302 229.46L57.2902 214.13C57.0487 213.591 56.9788 212.99 57.0902 212.41C57.1806 211.857 57.464 211.354 57.8902 210.99C58.0761 210.834 58.2968 210.726 58.5335 210.674C58.7702 210.621 59.0161 210.627 59.2502 210.69C59.4974 210.769 59.7254 210.899 59.9199 211.071C60.1144 211.244 60.2711 211.454 60.3802 211.69L60.4502 211.86Z" fill="white"/>
<path opacity="0.2" d="M69.9901 217.77L66.6001 222.21L68.5701 226.88L71.5301 220.68L69.9901 217.77Z" fill="black"/>
<path d="M67.7504 211.86L75.5004 226.55L70.7904 226.37L81.9804 210.37C82.0316 210.302 82.1066 210.255 82.1904 210.24C82.2299 210.235 82.27 210.239 82.3079 210.251C82.3459 210.263 82.3808 210.283 82.4104 210.31C82.4765 210.375 82.5217 210.459 82.5404 210.55C82.5702 210.641 82.5702 210.739 82.5404 210.83L74.5904 229.53C74.4589 229.861 74.2415 230.151 73.9604 230.37C73.716 230.573 73.4086 230.687 73.0904 230.69C72.7773 230.696 72.4713 230.597 72.2204 230.41C71.9362 230.202 71.712 229.922 71.5704 229.6L71.4904 229.42L64.5904 214.13C64.3574 213.592 64.2912 212.996 64.4004 212.42C64.5015 211.876 64.7834 211.383 65.2004 211.02C65.3825 210.864 65.5997 210.756 65.8332 210.704C66.0667 210.651 66.3095 210.657 66.5404 210.72C66.7893 210.796 67.019 210.925 67.2139 211.097C67.4088 211.27 67.5645 211.482 67.6704 211.72L67.7504 211.86Z" fill="white"/>
</g>
</svg>
